<svg xmlns="http://www.w3.org/2000/svg" width="132" height="192" viewBox="0 0 99 144"><path d="M53.98 1.219c6.387 2.16 8.125 8.867 8.168 13.129 5.301-2.059 11.024-.344 13.614 2.46 4.004 4.34 3.82 11.227 3.785 12l.004 16.696c1.074-1.133 2.289-2.047 3.605-2.7 2.774-1.378 5.82-1.55 8.809-.488 5.988 2.125 7.05 9.957 7.035 12.766l-2.563 52.246c.004 3.336-10.519 34.434-48.34 34.434-38.949 0-47.89-33.344-47.98-33.68L0 107.137V44.73c0-9.542 6.445-13.816 12.832-13.816 2.328 0 4.227.438 5.758 1.07.008-3.21.012-6.285.012-9.027 0-8.441 4.867-13.289 13.355-13.289 1.785 0 3.445.332 4.93.973.875-3.41 2.77-6.188 5.504-7.996C45.738.425 50.07-.11 53.98 1.219zm-7.316 7.836c-1.488.988-2.379 2.773-2.574 5.164v47.113h-7.723V22.957c-.008-1.312-.199-5.582-4.87-5.582-3.24-.004-5.173 1.453-5.173 5.582 0 6.04-.02 13.695-.047 20.922v.207c-.039 12.098-.093 23.012-.093 23.012l-7.723 8.191.094-31.227v-.18c-.032-1.554-.66-5.269-5.723-5.269-2.328 0-5.11 1.063-5.11 6.117v61.875c1.094 3.653 9.41 27.457 40.376 27.457 32.34 0 40.054-25.3 40.644-27.46l2.54-51.184c.218-2.93-.208-5.012-1.95-5.867-.96-.34-1.848-.301-2.734.144-1.504.746-2.825 2.54-3.532 4.797L78.414 72l-6.586-5.41V28.637c.047-1.293-.187-4.926-1.75-6.614-.516-.562-2.91-1.363-4.918-.582-2.5.97-3.023 4.157-3.023 6.664v33.227h-7.723V15.113c.004-.234-.047-5.633-3.105-6.668-1.653-.558-3.278-.297-4.645.61zm.883 62.894c13.32 0 24.117 10.797 24.117 24.117 0 13.317-10.797 24.114-24.117 24.114-13.317 0-24.113-10.797-24.113-24.114 0-13.32 10.796-24.117 24.113-24.117zm0 0" fill-rule="evenodd"/></svg>