<?xml version="1.0" encoding="UTF-8" standalone="no"?>
<!DOCTYPE svg PUBLIC "-//W3C//DTD SVG 1.1//EN" "http://www.w3.org/Graphics/SVG/1.1/DTD/svg11.dtd">
<svg width="100%" height="100%" viewBox="0 0 190 106" version="1.1" xmlns="http://www.w3.org/2000/svg" xmlns:xlink="http://www.w3.org/1999/xlink" xml:space="preserve" xmlns:serif="http://www.serif.com/" style="fill-rule:evenodd;clip-rule:evenodd;stroke-linejoin:round;stroke-miterlimit:2;">
    <g transform="matrix(1,0,0,1,-5,-57.7961)">
        <g transform="matrix(1.08173,0,0,1.08173,-8.19415,-11.2126)">
            <path d="M103.886,132.409L169.347,66.948C169.474,66.817 169.603,66.688 169.733,66.561C171.526,64.864 173.946,63.822 176.607,63.822C179.328,63.822 181.796,64.911 183.6,66.676C183.651,66.727 183.702,66.777 183.752,66.828L185.487,68.563C186.956,70.304 187.841,72.552 187.841,75.006C187.841,77.426 186.98,79.646 185.547,81.377L109.374,157.549C106.892,159.79 103.604,161.155 100,161.155C96.396,161.155 93.108,159.79 90.626,157.549L14.623,81.547C13.112,79.795 12.197,77.513 12.197,75.02C12.197,72.017 13.524,69.32 15.624,67.487C15.682,67.415 15.741,67.344 15.802,67.274L16.861,66.215C18.613,64.707 20.891,63.795 23.382,63.795C25.945,63.795 28.285,64.762 30.056,66.351L96.114,132.409C97.162,133.3 98.518,133.838 100,133.838C101.482,133.838 102.838,133.3 103.886,132.409Z" style="fill:white;"/>
        </g>
    </g>
</svg>
