<?xml version="1.0" encoding="UTF-8" standalone="no"?>
<!DOCTYPE svg PUBLIC "-//W3C//DTD SVG 1.1//EN" "http://www.w3.org/Graphics/SVG/1.1/DTD/svg11.dtd">
<svg width="100%" height="100%" viewBox="0 0 200 200" version="1.1" xmlns="http://www.w3.org/2000/svg" xmlns:xlink="http://www.w3.org/1999/xlink" xml:space="preserve" xmlns:serif="http://www.serif.com/" style="fill-rule:evenodd;clip-rule:evenodd;stroke-linejoin:round;stroke-miterlimit:2;">
    <g transform="matrix(0.959596,0,0,0.959596,4.0404,4.0404)">
        <path d="M29.698,186.674C22.107,179.073 17.409,168.581 17.409,157C17.409,133.82 36.229,115 59.409,115C82.589,115 101.409,133.82 101.409,157C101.409,180.18 82.589,199 59.409,199C47.81,199 37.302,194.287 29.698,186.674ZM44.211,172.161L46.87,174.819L59.409,162.28L71.948,174.819L77.228,169.539L64.689,157L77.228,144.461L71.948,139.181L59.409,151.72L46.87,139.181L41.59,144.461L54.129,157L41.59,169.539L44.211,172.161ZM57.482,60.75C57.881,51.82 60.155,43.374 63.92,35.798C69.755,24.054 79.17,14.398 90.735,8.262C99.471,3.627 109.434,1 120.005,1C130.563,1 140.514,3.62 149.243,8.245C160.817,14.378 170.242,24.036 176.083,35.784C180.248,44.161 182.591,53.602 182.591,63.586C182.591,64.423 182.574,65.257 182.542,66.086C182.53,66.399 182.515,66.711 182.498,67.023C182.463,67.517 182.408,68.034 182.333,68.563C182.293,68.845 182.248,69.122 182.199,69.392C182.176,69.522 182.151,69.652 182.126,69.78C181.439,73.354 180.52,76.979 179.371,80.625C177.98,85.039 176.25,89.483 174.182,93.904C173.236,95.765 172.244,97.654 171.206,99.569C169.996,101.801 168.725,104.067 167.395,106.365C167.013,106.976 166.625,107.585 166.229,108.193L166.288,108.26C158.006,122.322 147.546,137.474 135.319,152.811C132.267,156.639 129.105,160.479 125.84,164.316C123.913,166.58 121.979,168.809 120.042,171C118.107,168.811 116.177,166.585 114.253,164.324C112.85,162.676 111.467,161.027 110.103,159.379C111.545,156.399 112.354,153.057 112.354,149.527L112.354,89.966C114.802,90.582 117.366,90.91 120.005,90.91C137.276,90.91 151.298,76.888 151.298,59.617C151.298,42.346 137.276,28.324 120.005,28.324C102.734,28.324 88.712,42.346 88.712,59.617C88.712,59.996 88.718,60.374 88.732,60.75L57.482,60.75ZM30.792,115.396L30.792,93.103L20.632,93.103C20.038,93.103 19.488,92.912 19.04,92.589C18.355,92.094 17.909,91.289 17.909,90.38L17.909,83.784C17.909,81.852 18.313,80.014 19.04,78.349C19.385,77.56 19.802,76.811 20.283,76.109C21.202,74.768 22.354,73.6 23.681,72.664C25.895,71.102 28.596,70.184 31.509,70.184L89.309,70.184C96.815,70.184 102.909,76.278 102.909,83.784L102.909,131.348C100.144,126.672 96.646,122.479 92.574,118.929L92.574,84.629C92.574,82.357 90.73,80.513 88.459,80.513L34.46,80.513C38.144,80.513 41.134,83.988 41.134,88.267L41.134,109.913C37.459,111.342 33.993,113.189 30.792,115.396ZM83.798,103.137C83.798,104.991 82.293,106.496 80.44,106.496L53.168,106.496C51.315,106.496 49.81,104.991 49.81,103.137C49.81,101.284 51.315,99.779 53.168,99.779L80.44,99.779C82.293,99.779 83.798,101.284 83.798,103.137Z" style="fill:white;"/>
    </g>
</svg>
