<?xml version="1.0" encoding="UTF-8" standalone="no"?>
<!DOCTYPE svg PUBLIC "-//W3C//DTD SVG 1.1//EN" "http://www.w3.org/Graphics/SVG/1.1/DTD/svg11.dtd">
<svg width="100%" height="100%" viewBox="0 0 200 200" version="1.1" xmlns="http://www.w3.org/2000/svg" xmlns:xlink="http://www.w3.org/1999/xlink" xml:space="preserve" xmlns:serif="http://www.serif.com/" style="fill-rule:evenodd;clip-rule:evenodd;stroke-linejoin:round;stroke-miterlimit:2;">
    <g transform="matrix(1.03153,0,0,1.03153,-3.15343,-4.94984)">
        <path d="M99.273,159.367C50.161,159.086 25.961,133.924 10.107,109.37C8.506,106.89 7.812,104.317 7.914,101.705C7.817,99.137 8.444,96.592 9.893,94.113C21.503,74.257 50.221,44.113 99.893,44.113C149.566,44.113 173.949,69.42 189.893,94.113C191.494,96.593 192.188,99.166 192.086,101.778C192.183,104.346 191.556,106.891 190.107,109.37C178.497,129.225 149.779,159.37 100.107,159.37C99.828,159.37 99.551,159.369 99.274,159.367L99.274,138.734C99.516,138.739 99.758,138.741 100,138.741C120.421,138.741 137,122.162 137,101.741C137,81.321 120.421,64.741 100,64.741C79.579,64.741 63,81.321 63,101.741C63,121.919 79.187,138.346 99.273,138.734L99.273,159.367ZM100,78.741C112.694,78.741 123,89.047 123,101.741C123,114.436 112.694,124.741 100,124.741C87.306,124.741 77,114.436 77,101.741C77,89.047 87.306,78.741 100,78.741Z" style="fill:white;"/>
    </g>
</svg>
