<?xml version="1.0" encoding="UTF-8" standalone="no"?>
<!DOCTYPE svg PUBLIC "-//W3C//DTD SVG 1.1//EN" "http://www.w3.org/Graphics/SVG/1.1/DTD/svg11.dtd">
<svg width="100%" height="100%" viewBox="0 0 200 200" version="1.1" xmlns="http://www.w3.org/2000/svg" xmlns:xlink="http://www.w3.org/1999/xlink" xml:space="preserve" xmlns:serif="http://www.serif.com/" style="fill-rule:evenodd;clip-rule:evenodd;stroke-linejoin:round;stroke-miterlimit:2;">
    <g transform="matrix(1.14669,0,0,1.14669,-28.5504,1.6634)">
        <path d="M123.981,162.936C135.996,155.052 144.091,144.931 148.675,136.958C149.777,135.042 150.254,133.075 150.18,131.09C150.257,129.071 149.73,127.082 148.513,125.165C141.873,114.707 133.306,104.106 120.706,96.659C122.111,96.621 123.528,96.602 124.954,96.602C161.728,96.602 191.917,109.303 194.738,125.417C194.881,126.231 194.954,127.055 194.954,127.886L194.954,148.478C194.954,156.458 163.588,162.937 124.954,162.937C124.629,162.937 124.305,162.937 123.981,162.936ZM124.954,6.037C145.409,6.037 162.016,22.644 162.016,43.1C162.016,63.556 145.409,80.163 124.954,80.163C104.498,80.163 87.891,63.556 87.891,43.1C87.891,22.644 104.498,6.037 124.954,6.037ZM83.617,165.475C54.427,165.237 40.02,150.247 30.574,135.617C29.618,134.137 29.204,132.6 29.264,131.04C29.206,129.506 29.581,127.986 30.447,126.506C37.38,114.648 54.53,96.646 84.195,96.646C113.859,96.646 128.421,111.759 137.943,126.506C138.899,127.987 139.314,129.523 139.253,131.084C139.311,132.617 138.936,134.137 138.071,135.617C131.137,147.475 113.987,165.477 84.322,165.477C84.156,165.477 83.99,165.477 83.825,165.476C83.756,165.476 83.687,165.475 83.619,165.475L83.619,153.149C83.687,153.151 83.756,153.153 83.825,153.154C83.969,153.157 84.114,153.158 84.259,153.158C96.454,153.158 106.355,143.257 106.355,131.062C106.355,118.866 96.454,108.965 84.259,108.965C72.063,108.965 62.162,118.866 62.162,131.062C62.162,143.042 71.718,152.809 83.617,153.149L83.617,165.475ZM84.259,117.326C91.839,117.326 97.994,123.481 97.994,131.062C97.994,138.643 91.839,144.797 84.259,144.797C76.678,144.797 70.523,138.643 70.523,131.062C70.523,123.481 76.678,117.326 84.259,117.326Z" style="fill:white;"/>
    </g>
</svg>
