<?xml version="1.0" encoding="UTF-8" standalone="no"?>
<!DOCTYPE svg PUBLIC "-//W3C//DTD SVG 1.1//EN" "http://www.w3.org/Graphics/SVG/1.1/DTD/svg11.dtd">
<svg width="100%" height="100%" viewBox="0 0 200 200" version="1.1" xmlns="http://www.w3.org/2000/svg" xmlns:xlink="http://www.w3.org/1999/xlink" xml:space="preserve" xmlns:serif="http://www.serif.com/" style="fill-rule:evenodd;clip-rule:evenodd;stroke-linejoin:round;stroke-miterlimit:2;">
    <g transform="matrix(1.08777,0,0,1.08777,-12.0515,-2.54566)">
        <path d="M118.008,97.515C119.794,97.451 121.6,97.418 123.423,97.418C158.581,97.418 187.442,109.56 190.139,124.965C190.275,125.744 190.345,126.532 190.345,127.326L190.345,147.013C190.345,154.642 160.358,160.836 123.423,160.836C121.047,160.836 118.701,160.81 116.388,160.76C122.177,151.119 125.511,139.804 125.511,127.707C125.511,116.787 122.794,106.504 118.008,97.515ZM123.423,10.836C142.979,10.836 158.856,26.713 158.856,46.269C158.856,65.825 142.979,81.702 123.423,81.702C103.867,81.702 87.99,65.825 87.99,46.269C87.99,26.713 103.867,10.836 123.423,10.836ZM44.528,160.023C42.545,158.916 40.675,157.631 38.938,156.191C38.938,156.191 25.75,160.721 25.743,160.723C25.264,160.884 24.726,160.733 24.402,160.337C24.395,160.328 24.387,160.319 24.38,160.309C22.803,158.332 21.183,155.999 19.64,153.426C18.086,150.835 16.783,148.291 15.779,145.956C15.776,145.951 15.774,145.946 15.772,145.94C15.576,145.477 15.686,144.941 16.036,144.591C16.057,144.57 16.078,144.55 16.1,144.531L26.237,135.093L26.269,135.074C25.787,132.693 25.534,130.229 25.534,127.707C25.534,125.161 25.791,122.675 26.282,120.274C26.282,120.274 16.096,110.773 16.091,110.768C15.724,110.42 15.604,109.874 15.801,109.403C15.805,109.392 15.81,109.381 15.815,109.37C16.819,107.049 18.117,104.522 19.663,101.95C21.219,99.362 22.852,97.015 24.441,95.031C24.444,95.027 24.448,95.022 24.451,95.018C24.769,94.627 25.293,94.472 25.767,94.617C25.794,94.625 25.822,94.635 25.849,94.645L38.945,99.156L38.987,99.181C42.299,96.446 46.093,94.275 50.223,92.818C50.223,92.818 53.119,79.194 53.121,79.187C53.23,78.694 53.636,78.31 54.142,78.236C54.153,78.234 54.165,78.232 54.177,78.231C56.684,77.896 59.518,77.707 62.518,77.707C65.539,77.707 68.391,77.898 70.91,78.238C70.916,78.239 70.921,78.239 70.927,78.24C71.425,78.311 71.828,78.68 71.949,79.161C71.955,79.189 71.961,79.218 71.967,79.246L74.847,92.795L74.847,92.83C78.975,94.291 82.768,96.465 86.077,99.204C86.077,99.204 99.261,94.665 99.268,94.662C99.747,94.501 100.285,94.652 100.609,95.047C100.617,95.056 100.624,95.066 100.631,95.075C102.21,97.051 103.831,99.383 105.377,101.955C106.932,104.544 108.237,107.088 109.244,109.422C109.246,109.427 109.248,109.432 109.25,109.437C109.447,109.901 109.338,110.436 108.987,110.787C108.967,110.808 108.945,110.827 108.923,110.847L98.794,120.293L98.762,120.312C99.248,122.702 99.503,125.175 99.503,127.707C99.503,130.251 99.246,132.736 98.755,135.136C98.755,135.136 108.943,144.636 108.948,144.641C109.315,144.989 109.434,145.534 109.238,146.006C109.233,146.017 109.228,146.028 109.224,146.039C108.22,148.36 106.922,150.887 105.377,153.459C103.821,156.048 102.188,158.394 100.599,160.379C100.596,160.383 100.592,160.387 100.589,160.392C100.272,160.783 99.748,160.938 99.273,160.793C99.246,160.785 99.218,160.775 99.191,160.765L86.094,156.255L86.052,156.23C82.74,158.967 78.945,161.138 74.813,162.596C74.813,162.596 71.917,176.219 71.916,176.227C71.807,176.72 71.401,177.104 70.895,177.178C70.883,177.18 70.871,177.181 70.86,177.183C68.353,177.518 65.519,177.707 62.518,177.707C59.498,177.707 56.645,177.515 54.126,177.176C54.121,177.175 54.115,177.175 54.11,177.174C53.611,177.103 53.208,176.734 53.088,176.253C53.081,176.225 53.075,176.196 53.07,176.168L50.19,162.619L50.19,162.584C48.222,161.887 46.33,161.029 44.53,160.024L52.936,145.147C55.753,146.785 59.027,147.723 62.518,147.723C73.065,147.723 81.627,139.161 81.627,128.614C81.627,118.068 73.065,109.506 62.518,109.506C51.972,109.506 43.41,118.068 43.41,128.614C43.41,135.669 47.24,141.835 52.933,145.146L44.528,160.023Z" style="fill:white;"/>
    </g>
</svg>
