<?xml version="1.0" encoding="UTF-8" standalone="no"?>
<!DOCTYPE svg PUBLIC "-//W3C//DTD SVG 1.1//EN" "http://www.w3.org/Graphics/SVG/1.1/DTD/svg11.dtd">
<svg width="100%" height="100%" viewBox="0 0 200 200" version="1.1" xmlns="http://www.w3.org/2000/svg" xmlns:xlink="http://www.w3.org/1999/xlink" xml:space="preserve" xmlns:serif="http://www.serif.com/" style="fill-rule:evenodd;clip-rule:evenodd;stroke-linejoin:round;stroke-miterlimit:2;">
    <g transform="matrix(0.95,0,0,0.95,4.99987,5)">
        <path d="M40.625,87.5L9.375,87.5C4.197,87.5 0,91.697 0,96.875L0,190.625C0,195.803 4.197,200 9.375,200L40.625,200C45.803,200 50,195.803 50,190.625L50,96.875C50,91.697 45.803,87.5 40.625,87.5ZM25,184.375C19.822,184.375 15.625,180.178 15.625,175C15.625,169.822 19.822,165.625 25,165.625C30.178,165.625 34.375,169.822 34.375,175C34.375,180.178 30.178,184.375 25,184.375ZM150,31.817C150,48.386 139.856,57.68 137.001,68.75L176.737,68.75C189.783,68.75 199.939,79.588 200,91.445C200.033,98.452 197.052,105.995 192.406,110.662L192.363,110.705C196.206,119.821 195.581,132.595 188.727,141.748C192.118,151.863 188.701,164.288 182.328,170.95C184.007,177.824 183.205,183.674 179.927,188.384C171.954,199.839 152.194,200 135.484,200L134.373,200C115.511,199.993 100.074,193.125 87.67,187.607C81.436,184.834 73.286,181.401 67.103,181.288C64.548,181.241 62.5,179.156 62.5,176.601L62.5,93.097C62.5,91.847 63.001,90.647 63.89,89.768C79.364,74.478 86.018,58.289 98.701,45.584C104.484,39.791 106.587,31.039 108.62,22.576C110.357,15.349 113.991,0 121.875,0C131.25,0 150,3.125 150,31.817Z" style="fill:white;fill-rule:nonzero;"/>
    </g>
</svg>
