<?xml version="1.0" encoding="UTF-8" standalone="no"?>
<!DOCTYPE svg PUBLIC "-//W3C//DTD SVG 1.1//EN" "http://www.w3.org/Graphics/SVG/1.1/DTD/svg11.dtd">
<svg width="100%" height="100%" viewBox="0 0 200 200" version="1.1" xmlns="http://www.w3.org/2000/svg" xmlns:xlink="http://www.w3.org/1999/xlink" xml:space="preserve" xmlns:serif="http://www.serif.com/" style="fill-rule:evenodd;clip-rule:evenodd;stroke-linejoin:round;stroke-miterlimit:2;">
    <g transform="matrix(11.875,0,0,11.875,40.625,5)">
        <path d="M8.646,0L1.354,0C0.492,0 -0.208,0.672 -0.208,1.5L-0.208,14.5C-0.208,15.328 0.492,16 1.354,16L8.646,16C9.509,16 10.208,15.328 10.208,14.5L10.208,1.5C10.208,0.672 9.509,0 8.646,0ZM5,15C4.424,15 3.958,14.553 3.958,14C3.958,13.447 4.424,13 5,13C5.576,13 6.042,13.447 6.042,14C6.042,14.553 5.576,15 5,15ZM8.646,11.625C8.646,11.831 8.47,12 8.255,12L1.745,12C1.53,12 1.354,11.831 1.354,11.625L1.354,1.875C1.354,1.669 1.53,1.5 1.745,1.5L8.255,1.5C8.47,1.5 8.646,1.669 8.646,1.875L8.646,11.625Z" style="fill:white;fill-rule:nonzero;"/>
    </g>
</svg>
