<?xml version="1.0" encoding="UTF-8" standalone="no"?>
<!DOCTYPE svg PUBLIC "-//W3C//DTD SVG 1.1//EN" "http://www.w3.org/Graphics/SVG/1.1/DTD/svg11.dtd">
<svg width="100%" height="100%" viewBox="0 0 200 200" version="1.1" xmlns="http://www.w3.org/2000/svg" xmlns:xlink="http://www.w3.org/1999/xlink" xml:space="preserve" xmlns:serif="http://www.serif.com/" style="fill-rule:evenodd;clip-rule:evenodd;stroke-linejoin:round;stroke-miterlimit:2;">
    <g transform="matrix(1.05187,0,0,1.05187,-5.18689,-5.18689)">
        <g transform="matrix(0.27356,0,0,0.27356,-16.9293,50.2387)">
            <path d="M159.272,297.432L159.272,210.628L119.945,210.628C117.646,210.628 115.518,209.89 113.785,208.639C111.133,206.724 109.407,203.607 109.407,200.09L109.407,174.559C109.407,167.082 110.969,159.967 113.785,153.523C115.118,150.471 116.733,147.569 118.596,144.851C122.151,139.663 126.611,135.143 131.748,131.519C140.318,125.472 150.77,121.92 162.046,121.92L385.763,121.92C414.815,121.92 438.402,145.506 438.402,174.559L438.402,425.441C438.402,454.494 414.815,478.08 385.763,478.08L209.516,478.08C204.713,478.08 200.066,477.405 195.666,476.144C189.326,474.327 183.498,471.295 178.45,467.316C173.013,463.03 168.481,457.646 165.19,451.5C161.414,444.447 159.272,436.39 159.272,427.837L159.272,297.434L199.3,297.434L199.3,422.172C199.3,430.963 206.437,438.1 215.228,438.1L382.472,438.1C391.263,438.1 398.4,430.963 398.4,422.172L398.4,177.828C398.4,169.037 391.263,161.9 382.472,161.9L173.468,161.9C187.725,161.9 199.3,175.348 199.3,191.912L199.3,297.432L159.272,297.432ZM364.434,249.467C364.434,256.642 358.609,262.467 351.434,262.467L245.879,262.467C238.704,262.467 232.879,256.642 232.879,249.467C232.879,242.293 238.704,236.467 245.879,236.467L351.434,236.467C358.609,236.467 364.434,242.293 364.434,249.467ZM364.434,309.145C364.434,316.32 358.609,322.145 351.434,322.145L245.879,322.145C238.704,322.145 232.879,316.32 232.879,309.145C232.879,301.971 238.704,296.145 245.879,296.145L351.434,296.145C358.609,296.145 364.434,301.971 364.434,309.145ZM364.434,369.619C364.434,376.794 358.609,382.619 351.434,382.619L245.879,382.619C238.704,382.619 232.879,376.794 232.879,369.619C232.879,362.444 238.704,356.619 245.879,356.619L351.434,356.619C358.609,356.619 364.434,362.444 364.434,369.619Z" style="fill:white;"/>
        </g>
        <g transform="matrix(1.10833,0,0,1.10833,9.66667,-3.20216)">
            <path d="M40.044,69.309C40.376,60.6 42.567,52.364 46.232,44.987C51.826,33.729 60.853,24.472 71.939,18.589C80.315,14.145 89.866,11.627 100,11.627C110.122,11.627 119.662,14.139 128.03,18.573C139.126,24.452 148.161,33.711 153.761,44.973C156.827,51.141 158.863,57.909 159.643,65.053L129.874,65.053C128.474,49.791 115.624,37.822 100,37.822C83.443,37.822 70,51.264 70,67.822C70,68.32 70.012,68.816 70.036,69.309L40.044,69.309ZM93.252,97.058C95.421,97.558 97.68,97.822 100,97.822C116.557,97.822 130,84.379 130,67.822C130,66.889 129.957,65.966 129.874,65.055L159.643,65.055C159.879,67.214 160,69.406 160,71.627C160,72.43 159.984,73.229 159.953,74.024C159.941,74.324 159.927,74.623 159.911,74.922C159.877,75.396 159.825,75.891 159.753,76.398C159.714,76.669 159.672,76.934 159.625,77.193C159.602,77.318 159.578,77.442 159.554,77.565C158.895,80.991 158.015,84.467 156.913,87.962C155.579,92.193 153.921,96.454 151.939,100.692C151.032,102.476 150.08,104.287 149.086,106.123C147.926,108.263 146.707,110.436 145.432,112.638C145.066,113.224 144.693,113.808 144.314,114.39L144.371,114.455C136.431,127.935 126.403,142.462 114.682,157.165C111.756,160.835 108.725,164.516 105.594,168.194C103.747,170.365 101.893,172.502 100.035,174.602C98.181,172.504 96.33,170.37 94.486,168.202C93.353,166.871 92.234,165.54 91.128,164.209C92.485,161.579 93.252,158.596 93.252,155.435L93.252,97.058Z" style="fill:white;"/>
        </g>
    </g>
</svg>
