<?xml version="1.0" encoding="UTF-8" standalone="no"?>
<!DOCTYPE svg PUBLIC "-//W3C//DTD SVG 1.1//EN" "http://www.w3.org/Graphics/SVG/1.1/DTD/svg11.dtd">
<svg width="100%" height="100%" viewBox="0 0 616 701" version="1.1" xmlns="http://www.w3.org/2000/svg" xmlns:xlink="http://www.w3.org/1999/xlink" xml:space="preserve" xmlns:serif="http://www.serif.com/" style="fill-rule:evenodd;clip-rule:evenodd;stroke-linejoin:round;stroke-miterlimit:2;">
    <g transform="matrix(1,0,0,1,-243.011,-75.1439)">
        <g transform="matrix(1,0,0,1,-36.6567,149.265)">
            <g transform="matrix(47,0,0,47,318.299,614.838)">
                <path d="M0.262,0.009C0.226,0.009 0.193,0.002 0.165,-0.013C0.137,-0.028 0.115,-0.05 0.099,-0.078C0.084,-0.107 0.077,-0.141 0.08,-0.182L0.129,-0.182C0.126,-0.15 0.131,-0.124 0.143,-0.103C0.155,-0.083 0.172,-0.067 0.194,-0.058C0.216,-0.048 0.24,-0.043 0.267,-0.043C0.297,-0.043 0.324,-0.048 0.347,-0.06C0.37,-0.071 0.388,-0.085 0.401,-0.103C0.414,-0.121 0.422,-0.14 0.424,-0.161C0.426,-0.19 0.42,-0.214 0.406,-0.232C0.392,-0.25 0.37,-0.265 0.34,-0.275L0.252,-0.311C0.206,-0.327 0.172,-0.347 0.151,-0.37C0.129,-0.393 0.12,-0.425 0.124,-0.468C0.128,-0.515 0.148,-0.553 0.182,-0.583C0.216,-0.613 0.264,-0.628 0.324,-0.628C0.377,-0.628 0.418,-0.614 0.446,-0.587C0.474,-0.56 0.488,-0.524 0.489,-0.48L0.438,-0.48C0.437,-0.51 0.426,-0.534 0.405,-0.55C0.384,-0.567 0.355,-0.575 0.318,-0.575C0.277,-0.575 0.244,-0.565 0.22,-0.544C0.195,-0.523 0.182,-0.497 0.179,-0.465C0.177,-0.439 0.182,-0.419 0.194,-0.404C0.206,-0.389 0.227,-0.376 0.257,-0.366L0.365,-0.327C0.403,-0.313 0.432,-0.293 0.454,-0.267C0.475,-0.241 0.484,-0.206 0.48,-0.162C0.477,-0.132 0.467,-0.103 0.449,-0.078C0.431,-0.051 0.407,-0.031 0.375,-0.015C0.344,0.001 0.306,0.009 0.262,0.009Z" style="fill:rgb(205,79,57);fill-opacity:0.8;fill-rule:nonzero;"/>
            </g>
            <g transform="matrix(47,0,0,47,343.115,614.838)">
                <path d="M0.095,-0L0.159,-0.679L0.211,-0.679L0.182,-0.381C0.198,-0.413 0.22,-0.438 0.246,-0.457C0.273,-0.476 0.303,-0.485 0.338,-0.485C0.371,-0.485 0.398,-0.477 0.421,-0.461C0.444,-0.444 0.461,-0.421 0.472,-0.391C0.482,-0.36 0.486,-0.323 0.482,-0.28L0.455,-0L0.405,-0L0.431,-0.28C0.436,-0.33 0.428,-0.369 0.409,-0.395C0.389,-0.422 0.361,-0.435 0.325,-0.435C0.294,-0.435 0.267,-0.426 0.245,-0.408C0.222,-0.39 0.204,-0.365 0.192,-0.332C0.179,-0.3 0.17,-0.262 0.167,-0.218L0.147,-0L0.095,-0Z" style="fill:rgb(205,79,57);fill-opacity:0.8;fill-rule:nonzero;"/>
            </g>
            <g transform="matrix(47,0,0,47,368.26,614.838)">
                <path d="M0.215,0.009C0.184,0.009 0.158,0.002 0.138,-0.012C0.117,-0.025 0.102,-0.043 0.094,-0.064C0.085,-0.085 0.082,-0.107 0.084,-0.13C0.087,-0.163 0.097,-0.19 0.114,-0.21C0.131,-0.231 0.152,-0.246 0.178,-0.256C0.203,-0.265 0.23,-0.27 0.259,-0.27C0.279,-0.27 0.301,-0.268 0.323,-0.263C0.345,-0.258 0.366,-0.25 0.385,-0.241L0.391,-0.309C0.396,-0.356 0.39,-0.39 0.373,-0.411C0.356,-0.431 0.33,-0.441 0.296,-0.441C0.276,-0.441 0.258,-0.438 0.241,-0.432C0.224,-0.426 0.21,-0.416 0.199,-0.402C0.188,-0.388 0.182,-0.371 0.18,-0.349L0.122,-0.349C0.125,-0.383 0.135,-0.41 0.153,-0.43C0.17,-0.45 0.192,-0.464 0.217,-0.473C0.243,-0.481 0.269,-0.485 0.296,-0.485C0.345,-0.485 0.383,-0.471 0.41,-0.444C0.437,-0.417 0.448,-0.371 0.442,-0.308L0.413,-0L0.369,-0C0.369,-0.015 0.369,-0.03 0.37,-0.044C0.37,-0.058 0.371,-0.073 0.371,-0.088C0.355,-0.055 0.333,-0.03 0.304,-0.015C0.276,0.001 0.246,0.009 0.215,0.009ZM0.22,-0.036C0.246,-0.036 0.271,-0.043 0.296,-0.056C0.321,-0.07 0.341,-0.089 0.358,-0.114C0.374,-0.139 0.382,-0.169 0.381,-0.204C0.36,-0.211 0.339,-0.216 0.319,-0.22C0.298,-0.224 0.278,-0.226 0.259,-0.226C0.227,-0.226 0.2,-0.219 0.178,-0.205C0.155,-0.191 0.142,-0.166 0.138,-0.13C0.136,-0.104 0.141,-0.082 0.154,-0.064C0.166,-0.045 0.188,-0.036 0.22,-0.036Z" style="fill:rgb(205,79,57);fill-opacity:0.8;fill-rule:nonzero;"/>
            </g>
            <g transform="matrix(47,0,0,47,391.384,614.838)">
                <path d="M0.094,-0L0.138,-0.475L0.19,-0.475L0.181,-0.387C0.195,-0.42 0.213,-0.444 0.233,-0.46C0.253,-0.475 0.277,-0.483 0.305,-0.483C0.312,-0.483 0.321,-0.482 0.33,-0.481C0.34,-0.48 0.349,-0.477 0.358,-0.473L0.348,-0.418C0.338,-0.422 0.329,-0.424 0.319,-0.427C0.309,-0.429 0.299,-0.43 0.289,-0.43C0.262,-0.43 0.241,-0.421 0.224,-0.403C0.207,-0.385 0.193,-0.36 0.184,-0.328C0.174,-0.296 0.168,-0.259 0.165,-0.218L0.146,-0L0.094,-0Z" style="fill:rgb(205,79,57);fill-opacity:0.8;fill-rule:nonzero;"/>
            </g>
            <g transform="matrix(47,0,0,47,406.73,614.838)">
                <path d="M0.235,0.009C0.197,0.009 0.165,-0 0.138,-0.02C0.111,-0.039 0.092,-0.067 0.079,-0.103C0.067,-0.14 0.063,-0.184 0.068,-0.236C0.073,-0.287 0.085,-0.332 0.105,-0.369C0.124,-0.406 0.149,-0.435 0.179,-0.455C0.209,-0.475 0.243,-0.485 0.28,-0.485C0.306,-0.485 0.328,-0.48 0.347,-0.471C0.366,-0.462 0.382,-0.449 0.395,-0.433C0.407,-0.416 0.416,-0.397 0.422,-0.375C0.428,-0.353 0.431,-0.329 0.43,-0.303C0.43,-0.292 0.429,-0.279 0.427,-0.266C0.426,-0.253 0.424,-0.24 0.421,-0.227L0.097,-0.227L0.122,-0.242C0.117,-0.204 0.118,-0.169 0.125,-0.139C0.131,-0.108 0.143,-0.083 0.162,-0.065C0.181,-0.047 0.207,-0.038 0.241,-0.038C0.271,-0.038 0.297,-0.047 0.319,-0.064C0.341,-0.081 0.355,-0.105 0.363,-0.138L0.417,-0.138C0.409,-0.105 0.396,-0.078 0.378,-0.056C0.36,-0.034 0.339,-0.018 0.315,-0.007C0.29,0.004 0.263,0.009 0.235,0.009ZM0.122,-0.256L0.104,-0.265L0.402,-0.265L0.377,-0.259C0.381,-0.291 0.382,-0.32 0.378,-0.348C0.374,-0.375 0.364,-0.397 0.348,-0.414C0.332,-0.431 0.309,-0.439 0.278,-0.439C0.248,-0.439 0.222,-0.431 0.2,-0.414C0.178,-0.397 0.161,-0.374 0.148,-0.346C0.134,-0.318 0.126,-0.288 0.122,-0.256Z" style="fill:rgb(205,79,57);fill-opacity:0.8;fill-rule:nonzero;"/>
            </g>
            <g transform="matrix(47,0,0,47,437.844,614.838)">
                <path d="M0.082,0.243C0.065,0.243 0.049,0.24 0.034,0.234C0.019,0.227 0.003,0.218 -0.012,0.207L-0.006,0.152C0.007,0.166 0.021,0.177 0.035,0.183C0.049,0.189 0.064,0.193 0.08,0.193C0.1,0.193 0.118,0.185 0.132,0.171C0.147,0.156 0.159,0.138 0.169,0.116C0.179,0.094 0.188,0.072 0.195,0.05L0.213,-0L0.082,-0.474L0.138,-0.474L0.244,-0.078L0.389,-0.474L0.442,-0.474L0.231,0.099C0.22,0.128 0.207,0.153 0.193,0.175C0.179,0.197 0.162,0.213 0.144,0.225C0.126,0.237 0.105,0.243 0.082,0.243Z" style="fill:rgb(205,79,57);fill-opacity:0.8;fill-rule:nonzero;"/>
            </g>
            <g transform="matrix(47,0,0,47,457.889,614.838)">
                <path d="M0.24,0.009C0.201,0.009 0.168,-0 0.14,-0.019C0.113,-0.038 0.093,-0.066 0.08,-0.103C0.067,-0.139 0.063,-0.185 0.068,-0.238C0.073,-0.291 0.086,-0.336 0.106,-0.373C0.126,-0.409 0.152,-0.438 0.183,-0.457C0.214,-0.475 0.248,-0.485 0.287,-0.485C0.326,-0.485 0.359,-0.475 0.386,-0.456C0.413,-0.436 0.433,-0.408 0.446,-0.371C0.459,-0.334 0.463,-0.29 0.458,-0.238C0.452,-0.185 0.44,-0.14 0.42,-0.103C0.4,-0.066 0.375,-0.039 0.344,-0.02C0.313,-0 0.278,0.009 0.24,0.009ZM0.242,-0.04C0.289,-0.04 0.326,-0.058 0.354,-0.094C0.382,-0.13 0.399,-0.178 0.405,-0.238C0.411,-0.298 0.403,-0.345 0.383,-0.382C0.363,-0.418 0.329,-0.436 0.282,-0.436C0.235,-0.436 0.198,-0.418 0.172,-0.382C0.145,-0.347 0.129,-0.299 0.124,-0.238C0.12,-0.199 0.121,-0.164 0.128,-0.134C0.135,-0.104 0.148,-0.081 0.167,-0.065C0.185,-0.048 0.21,-0.04 0.242,-0.04Z" style="fill:rgb(205,79,57);fill-opacity:0.8;fill-rule:nonzero;"/>
            </g>
            <g transform="matrix(47,0,0,47,480.52,614.838)">
                <path d="M0.239,0.009C0.206,0.009 0.178,0.002 0.155,-0.012C0.133,-0.025 0.116,-0.046 0.106,-0.073C0.096,-0.1 0.093,-0.134 0.096,-0.174L0.124,-0.475L0.176,-0.475L0.149,-0.177C0.144,-0.132 0.15,-0.098 0.167,-0.076C0.184,-0.053 0.212,-0.042 0.25,-0.042C0.28,-0.042 0.306,-0.051 0.329,-0.069C0.352,-0.087 0.37,-0.111 0.384,-0.141C0.398,-0.171 0.407,-0.205 0.411,-0.241L0.433,-0.475L0.485,-0.475L0.44,-0L0.388,-0L0.398,-0.1C0.38,-0.066 0.357,-0.039 0.33,-0.02C0.303,-0 0.272,0.009 0.239,0.009Z" style="fill:rgb(205,79,57);fill-opacity:0.8;fill-rule:nonzero;"/>
            </g>
            <g transform="matrix(47,0,0,47,505.665,614.838)">
                <path d="M0.094,-0L0.138,-0.475L0.19,-0.475L0.181,-0.387C0.195,-0.42 0.213,-0.444 0.233,-0.46C0.253,-0.475 0.277,-0.483 0.305,-0.483C0.312,-0.483 0.321,-0.482 0.33,-0.481C0.34,-0.48 0.349,-0.477 0.358,-0.473L0.348,-0.418C0.338,-0.422 0.329,-0.424 0.319,-0.427C0.309,-0.429 0.299,-0.43 0.289,-0.43C0.262,-0.43 0.241,-0.421 0.224,-0.403C0.207,-0.385 0.193,-0.36 0.184,-0.328C0.174,-0.296 0.168,-0.259 0.165,-0.218L0.146,-0L0.094,-0Z" style="fill:rgb(205,79,57);fill-opacity:0.8;fill-rule:nonzero;"/>
            </g>
            <g transform="matrix(47,0,0,47,530.716,614.838)">
                <path d="M0.197,-0.601C0.187,-0.601 0.179,-0.604 0.173,-0.611C0.166,-0.617 0.164,-0.627 0.165,-0.639C0.166,-0.65 0.17,-0.66 0.178,-0.667C0.185,-0.674 0.195,-0.678 0.206,-0.678C0.217,-0.678 0.225,-0.674 0.232,-0.667C0.238,-0.66 0.24,-0.65 0.239,-0.639C0.238,-0.628 0.233,-0.619 0.226,-0.612C0.218,-0.604 0.208,-0.601 0.197,-0.601ZM0.014,0.243C-0.006,0.243 -0.025,0.24 -0.044,0.233C-0.062,0.226 -0.081,0.216 -0.1,0.203L-0.091,0.152C-0.074,0.165 -0.058,0.175 -0.042,0.182C-0.026,0.189 -0.009,0.193 0.009,0.193C0.037,0.193 0.059,0.183 0.075,0.165C0.091,0.146 0.102,0.115 0.107,0.073L0.159,-0.476L0.211,-0.476L0.159,0.072C0.155,0.113 0.147,0.147 0.133,0.172C0.119,0.197 0.101,0.215 0.081,0.226C0.06,0.237 0.038,0.243 0.014,0.243Z" style="fill:rgb(205,79,57);fill-opacity:0.8;fill-rule:nonzero;"/>
            </g>
            <g transform="matrix(47,0,0,47,543.57,614.838)">
                <path d="M0.24,0.009C0.201,0.009 0.168,-0 0.14,-0.019C0.113,-0.038 0.093,-0.066 0.08,-0.103C0.067,-0.139 0.063,-0.185 0.068,-0.238C0.073,-0.291 0.086,-0.336 0.106,-0.373C0.126,-0.409 0.152,-0.438 0.183,-0.457C0.214,-0.475 0.248,-0.485 0.287,-0.485C0.326,-0.485 0.359,-0.475 0.386,-0.456C0.413,-0.436 0.433,-0.408 0.446,-0.371C0.459,-0.334 0.463,-0.29 0.458,-0.238C0.452,-0.185 0.44,-0.14 0.42,-0.103C0.4,-0.066 0.375,-0.039 0.344,-0.02C0.313,-0 0.278,0.009 0.24,0.009ZM0.242,-0.04C0.289,-0.04 0.326,-0.058 0.354,-0.094C0.382,-0.13 0.399,-0.178 0.405,-0.238C0.411,-0.298 0.403,-0.345 0.383,-0.382C0.363,-0.418 0.329,-0.436 0.282,-0.436C0.235,-0.436 0.198,-0.418 0.172,-0.382C0.145,-0.347 0.129,-0.299 0.124,-0.238C0.12,-0.199 0.121,-0.164 0.128,-0.134C0.135,-0.104 0.148,-0.081 0.167,-0.065C0.185,-0.048 0.21,-0.04 0.242,-0.04Z" style="fill:rgb(205,79,57);fill-opacity:0.8;fill-rule:nonzero;"/>
            </g>
            <g transform="matrix(47,0,0,47,566.201,614.838)">
                <path d="M0.239,0.009C0.206,0.009 0.178,0.002 0.155,-0.012C0.133,-0.025 0.116,-0.046 0.106,-0.073C0.096,-0.1 0.093,-0.134 0.096,-0.174L0.124,-0.475L0.176,-0.475L0.149,-0.177C0.144,-0.132 0.15,-0.098 0.167,-0.076C0.184,-0.053 0.212,-0.042 0.25,-0.042C0.28,-0.042 0.306,-0.051 0.329,-0.069C0.352,-0.087 0.37,-0.111 0.384,-0.141C0.398,-0.171 0.407,-0.205 0.411,-0.241L0.433,-0.475L0.485,-0.475L0.44,-0L0.388,-0L0.398,-0.1C0.38,-0.066 0.357,-0.039 0.33,-0.02C0.303,-0 0.272,0.009 0.239,0.009Z" style="fill:rgb(205,79,57);fill-opacity:0.8;fill-rule:nonzero;"/>
            </g>
            <g transform="matrix(47,0,0,47,591.346,614.838)">
                <path d="M0.094,-0L0.138,-0.475L0.19,-0.475L0.181,-0.387C0.195,-0.42 0.213,-0.444 0.233,-0.46C0.253,-0.475 0.277,-0.483 0.305,-0.483C0.312,-0.483 0.321,-0.482 0.33,-0.481C0.34,-0.48 0.349,-0.477 0.358,-0.473L0.348,-0.418C0.338,-0.422 0.329,-0.424 0.319,-0.427C0.309,-0.429 0.299,-0.43 0.289,-0.43C0.262,-0.43 0.241,-0.421 0.224,-0.403C0.207,-0.385 0.193,-0.36 0.184,-0.328C0.174,-0.296 0.168,-0.259 0.165,-0.218L0.146,-0L0.094,-0Z" style="fill:rgb(205,79,57);fill-opacity:0.8;fill-rule:nonzero;"/>
            </g>
            <g transform="matrix(47,0,0,47,606.691,614.838)">
                <path d="M0.094,-0L0.138,-0.474L0.182,-0.474L0.179,-0.376C0.195,-0.411 0.217,-0.438 0.244,-0.457C0.271,-0.475 0.302,-0.485 0.337,-0.485C0.37,-0.485 0.397,-0.477 0.42,-0.461C0.443,-0.445 0.46,-0.422 0.47,-0.391C0.481,-0.36 0.484,-0.323 0.479,-0.28L0.453,-0L0.403,-0L0.429,-0.28C0.434,-0.331 0.426,-0.37 0.406,-0.396C0.386,-0.422 0.358,-0.435 0.323,-0.435C0.278,-0.435 0.242,-0.416 0.216,-0.379C0.189,-0.342 0.173,-0.292 0.167,-0.231L0.146,-0L0.094,-0Z" style="fill:rgb(205,79,57);fill-opacity:0.8;fill-rule:nonzero;"/>
            </g>
            <g transform="matrix(47,0,0,47,631.766,614.838)">
                <path d="M0.235,0.009C0.197,0.009 0.165,-0 0.138,-0.02C0.111,-0.039 0.092,-0.067 0.079,-0.103C0.067,-0.14 0.063,-0.184 0.068,-0.236C0.073,-0.287 0.085,-0.332 0.105,-0.369C0.124,-0.406 0.149,-0.435 0.179,-0.455C0.209,-0.475 0.243,-0.485 0.28,-0.485C0.306,-0.485 0.328,-0.48 0.347,-0.471C0.366,-0.462 0.382,-0.449 0.395,-0.433C0.407,-0.416 0.416,-0.397 0.422,-0.375C0.428,-0.353 0.431,-0.329 0.43,-0.303C0.43,-0.292 0.429,-0.279 0.427,-0.266C0.426,-0.253 0.424,-0.24 0.421,-0.227L0.097,-0.227L0.122,-0.242C0.117,-0.204 0.118,-0.169 0.125,-0.139C0.131,-0.108 0.143,-0.083 0.162,-0.065C0.181,-0.047 0.207,-0.038 0.241,-0.038C0.271,-0.038 0.297,-0.047 0.319,-0.064C0.341,-0.081 0.355,-0.105 0.363,-0.138L0.417,-0.138C0.409,-0.105 0.396,-0.078 0.378,-0.056C0.36,-0.034 0.339,-0.018 0.315,-0.007C0.29,0.004 0.263,0.009 0.235,0.009ZM0.122,-0.256L0.104,-0.265L0.402,-0.265L0.377,-0.259C0.381,-0.291 0.382,-0.32 0.378,-0.348C0.374,-0.375 0.364,-0.397 0.348,-0.414C0.332,-0.431 0.309,-0.439 0.278,-0.439C0.248,-0.439 0.222,-0.431 0.2,-0.414C0.178,-0.397 0.161,-0.374 0.148,-0.346C0.134,-0.318 0.126,-0.288 0.122,-0.256Z" style="fill:rgb(205,79,57);fill-opacity:0.8;fill-rule:nonzero;"/>
            </g>
            <g transform="matrix(47,0,0,47,653.174,614.838)">
                <path d="M0.082,0.243C0.065,0.243 0.049,0.24 0.034,0.234C0.019,0.227 0.003,0.218 -0.012,0.207L-0.006,0.152C0.007,0.166 0.021,0.177 0.035,0.183C0.049,0.189 0.064,0.193 0.08,0.193C0.1,0.193 0.118,0.185 0.132,0.171C0.147,0.156 0.159,0.138 0.169,0.116C0.179,0.094 0.188,0.072 0.195,0.05L0.213,-0L0.082,-0.474L0.138,-0.474L0.244,-0.078L0.389,-0.474L0.442,-0.474L0.231,0.099C0.22,0.128 0.207,0.153 0.193,0.175C0.179,0.197 0.162,0.213 0.144,0.225C0.126,0.237 0.105,0.243 0.082,0.243Z" style="fill:rgb(205,79,57);fill-opacity:0.8;fill-rule:nonzero;"/>
            </g>
            <g transform="matrix(47,0,0,47,682.925,614.838)">
                <path d="M0.064,-0.474L0.117,-0.474L0.194,-0.076L0.34,-0.453L0.38,-0.453L0.457,-0.07L0.608,-0.474L0.66,-0.474L0.475,-0L0.426,-0L0.35,-0.359L0.21,-0L0.161,-0L0.064,-0.474Z" style="fill:rgb(205,79,57);fill-opacity:0.8;fill-rule:nonzero;"/>
            </g>
            <g transform="matrix(47,0,0,47,712.817,614.838)">
                <path d="M0.18,-0.601C0.169,-0.601 0.16,-0.604 0.155,-0.611C0.149,-0.618 0.147,-0.628 0.148,-0.639C0.149,-0.648 0.152,-0.657 0.159,-0.666C0.165,-0.674 0.175,-0.678 0.187,-0.678C0.198,-0.678 0.207,-0.674 0.213,-0.667C0.219,-0.659 0.221,-0.65 0.22,-0.639C0.219,-0.627 0.214,-0.617 0.207,-0.611C0.199,-0.604 0.19,-0.601 0.18,-0.601ZM0.096,-0L0.141,-0.475L0.193,-0.475L0.148,-0L0.096,-0Z" style="fill:rgb(205,79,57);fill-opacity:0.8;fill-rule:nonzero;"/>
            </g>
            <g transform="matrix(47,0,0,47,724.802,614.838)">
                <path d="M0.219,0.009C0.196,0.009 0.176,0.005 0.16,-0.005C0.144,-0.014 0.132,-0.028 0.125,-0.047C0.117,-0.066 0.115,-0.089 0.117,-0.118L0.147,-0.447L0.168,-0.434L0.07,-0.434L0.077,-0.474L0.171,-0.474L0.146,-0.452L0.162,-0.61L0.214,-0.61L0.198,-0.452L0.178,-0.474L0.344,-0.474L0.339,-0.434L0.173,-0.434L0.198,-0.447L0.166,-0.118C0.164,-0.091 0.168,-0.071 0.178,-0.058C0.189,-0.044 0.205,-0.038 0.227,-0.038C0.239,-0.038 0.252,-0.039 0.265,-0.043C0.278,-0.046 0.291,-0.05 0.306,-0.057L0.31,-0.015C0.294,-0.007 0.278,-0.001 0.263,0.003C0.248,0.007 0.233,0.009 0.219,0.009Z" style="fill:rgb(205,79,57);fill-opacity:0.8;fill-rule:nonzero;"/>
            </g>
            <g transform="matrix(47,0,0,47,740.265,614.838)">
                <path d="M0.095,-0L0.159,-0.679L0.211,-0.679L0.182,-0.381C0.198,-0.413 0.22,-0.438 0.246,-0.457C0.273,-0.476 0.303,-0.485 0.338,-0.485C0.371,-0.485 0.398,-0.477 0.421,-0.461C0.444,-0.444 0.461,-0.421 0.472,-0.391C0.482,-0.36 0.486,-0.323 0.482,-0.28L0.455,-0L0.405,-0L0.431,-0.28C0.436,-0.33 0.428,-0.369 0.409,-0.395C0.389,-0.422 0.361,-0.435 0.325,-0.435C0.294,-0.435 0.267,-0.426 0.245,-0.408C0.222,-0.39 0.204,-0.365 0.192,-0.332C0.179,-0.3 0.17,-0.262 0.167,-0.218L0.147,-0L0.095,-0Z" style="fill:rgb(205,79,57);fill-opacity:0.8;fill-rule:nonzero;"/>
            </g>
            <g transform="matrix(47,0,0,47,775.116,614.838)">
                <path d="M0.24,0.009C0.201,0.009 0.168,-0 0.14,-0.019C0.113,-0.038 0.093,-0.066 0.08,-0.103C0.067,-0.139 0.063,-0.185 0.068,-0.238C0.073,-0.291 0.086,-0.336 0.106,-0.373C0.126,-0.409 0.152,-0.438 0.183,-0.457C0.214,-0.475 0.248,-0.485 0.287,-0.485C0.326,-0.485 0.359,-0.475 0.386,-0.456C0.413,-0.436 0.433,-0.408 0.446,-0.371C0.459,-0.334 0.463,-0.29 0.458,-0.238C0.452,-0.185 0.44,-0.14 0.42,-0.103C0.4,-0.066 0.375,-0.039 0.344,-0.02C0.313,-0 0.278,0.009 0.24,0.009ZM0.242,-0.04C0.289,-0.04 0.326,-0.058 0.354,-0.094C0.382,-0.13 0.399,-0.178 0.405,-0.238C0.411,-0.298 0.403,-0.345 0.383,-0.382C0.363,-0.418 0.329,-0.436 0.282,-0.436C0.235,-0.436 0.198,-0.418 0.172,-0.382C0.145,-0.347 0.129,-0.299 0.124,-0.238C0.12,-0.199 0.121,-0.164 0.128,-0.134C0.135,-0.104 0.148,-0.081 0.167,-0.065C0.185,-0.048 0.21,-0.04 0.242,-0.04Z" style="fill:rgb(205,79,57);fill-opacity:0.8;fill-rule:nonzero;"/>
            </g>
            <g transform="matrix(47,0,0,47,797.746,614.838)">
                <path d="M0.219,0.009C0.196,0.009 0.176,0.005 0.16,-0.005C0.144,-0.014 0.132,-0.028 0.125,-0.047C0.117,-0.066 0.115,-0.089 0.117,-0.118L0.147,-0.447L0.168,-0.434L0.07,-0.434L0.077,-0.474L0.171,-0.474L0.146,-0.452L0.162,-0.61L0.214,-0.61L0.198,-0.452L0.178,-0.474L0.344,-0.474L0.339,-0.434L0.173,-0.434L0.198,-0.447L0.166,-0.118C0.164,-0.091 0.168,-0.071 0.178,-0.058C0.189,-0.044 0.205,-0.038 0.227,-0.038C0.239,-0.038 0.252,-0.039 0.265,-0.043C0.278,-0.046 0.291,-0.05 0.306,-0.057L0.31,-0.015C0.294,-0.007 0.278,-0.001 0.263,0.003C0.248,0.007 0.233,0.009 0.219,0.009Z" style="fill:rgb(205,79,57);fill-opacity:0.8;fill-rule:nonzero;"/>
            </g>
            <g transform="matrix(47,0,0,47,813.209,614.838)">
                <path d="M0.095,-0L0.159,-0.679L0.211,-0.679L0.182,-0.381C0.198,-0.413 0.22,-0.438 0.246,-0.457C0.273,-0.476 0.303,-0.485 0.338,-0.485C0.371,-0.485 0.398,-0.477 0.421,-0.461C0.444,-0.444 0.461,-0.421 0.472,-0.391C0.482,-0.36 0.486,-0.323 0.482,-0.28L0.455,-0L0.405,-0L0.431,-0.28C0.436,-0.33 0.428,-0.369 0.409,-0.395C0.389,-0.422 0.361,-0.435 0.325,-0.435C0.294,-0.435 0.267,-0.426 0.245,-0.408C0.222,-0.39 0.204,-0.365 0.192,-0.332C0.179,-0.3 0.17,-0.262 0.167,-0.218L0.147,-0L0.095,-0Z" style="fill:rgb(205,79,57);fill-opacity:0.8;fill-rule:nonzero;"/>
            </g>
            <g transform="matrix(47,0,0,47,838.354,614.838)">
                <path d="M0.235,0.009C0.197,0.009 0.165,-0 0.138,-0.02C0.111,-0.039 0.092,-0.067 0.079,-0.103C0.067,-0.14 0.063,-0.184 0.068,-0.236C0.073,-0.287 0.085,-0.332 0.105,-0.369C0.124,-0.406 0.149,-0.435 0.179,-0.455C0.209,-0.475 0.243,-0.485 0.28,-0.485C0.306,-0.485 0.328,-0.48 0.347,-0.471C0.366,-0.462 0.382,-0.449 0.395,-0.433C0.407,-0.416 0.416,-0.397 0.422,-0.375C0.428,-0.353 0.431,-0.329 0.43,-0.303C0.43,-0.292 0.429,-0.279 0.427,-0.266C0.426,-0.253 0.424,-0.24 0.421,-0.227L0.097,-0.227L0.122,-0.242C0.117,-0.204 0.118,-0.169 0.125,-0.139C0.131,-0.108 0.143,-0.083 0.162,-0.065C0.181,-0.047 0.207,-0.038 0.241,-0.038C0.271,-0.038 0.297,-0.047 0.319,-0.064C0.341,-0.081 0.355,-0.105 0.363,-0.138L0.417,-0.138C0.409,-0.105 0.396,-0.078 0.378,-0.056C0.36,-0.034 0.339,-0.018 0.315,-0.007C0.29,0.004 0.263,0.009 0.235,0.009ZM0.122,-0.256L0.104,-0.265L0.402,-0.265L0.377,-0.259C0.381,-0.291 0.382,-0.32 0.378,-0.348C0.374,-0.375 0.364,-0.397 0.348,-0.414C0.332,-0.431 0.309,-0.439 0.278,-0.439C0.248,-0.439 0.222,-0.431 0.2,-0.414C0.178,-0.397 0.161,-0.374 0.148,-0.346C0.134,-0.318 0.126,-0.288 0.122,-0.256Z" style="fill:rgb(205,79,57);fill-opacity:0.8;fill-rule:nonzero;"/>
            </g>
            <g transform="matrix(47,0,0,47,859.763,614.838)">
                <path d="M0.094,-0L0.138,-0.475L0.19,-0.475L0.181,-0.387C0.195,-0.42 0.213,-0.444 0.233,-0.46C0.253,-0.475 0.277,-0.483 0.305,-0.483C0.312,-0.483 0.321,-0.482 0.33,-0.481C0.34,-0.48 0.349,-0.477 0.358,-0.473L0.348,-0.418C0.338,-0.422 0.329,-0.424 0.319,-0.427C0.309,-0.429 0.299,-0.43 0.289,-0.43C0.262,-0.43 0.241,-0.421 0.224,-0.403C0.207,-0.385 0.193,-0.36 0.184,-0.328C0.174,-0.296 0.168,-0.259 0.165,-0.218L0.146,-0L0.094,-0Z" style="fill:rgb(205,79,57);fill-opacity:0.8;fill-rule:nonzero;"/>
            </g>
            <g transform="matrix(47,0,0,47,875.108,614.838)">
                <path d="M0.238,0.009C0.2,0.009 0.169,0.003 0.144,-0.011C0.119,-0.024 0.1,-0.042 0.088,-0.064C0.076,-0.086 0.071,-0.111 0.072,-0.138L0.123,-0.138C0.121,-0.106 0.132,-0.081 0.154,-0.063C0.177,-0.045 0.206,-0.036 0.241,-0.036C0.275,-0.036 0.304,-0.044 0.328,-0.06C0.352,-0.076 0.365,-0.098 0.368,-0.124C0.371,-0.146 0.365,-0.162 0.35,-0.174C0.335,-0.186 0.315,-0.197 0.288,-0.206L0.213,-0.233C0.177,-0.246 0.15,-0.262 0.132,-0.283C0.114,-0.303 0.106,-0.329 0.11,-0.361C0.112,-0.385 0.121,-0.407 0.135,-0.426C0.149,-0.444 0.169,-0.459 0.194,-0.469C0.218,-0.48 0.247,-0.485 0.28,-0.485C0.329,-0.485 0.367,-0.474 0.394,-0.452C0.42,-0.43 0.432,-0.401 0.431,-0.368L0.379,-0.368C0.378,-0.392 0.368,-0.409 0.35,-0.422C0.332,-0.434 0.308,-0.44 0.279,-0.44C0.253,-0.44 0.232,-0.436 0.216,-0.428C0.2,-0.42 0.187,-0.41 0.179,-0.398C0.171,-0.386 0.166,-0.374 0.164,-0.361C0.161,-0.34 0.167,-0.322 0.182,-0.308C0.196,-0.294 0.217,-0.283 0.244,-0.275L0.318,-0.249C0.353,-0.238 0.381,-0.222 0.4,-0.202C0.419,-0.182 0.427,-0.156 0.423,-0.124C0.421,-0.101 0.412,-0.079 0.397,-0.059C0.382,-0.038 0.361,-0.022 0.334,-0.01C0.307,0.003 0.275,0.009 0.238,0.009Z" style="fill:rgb(205,79,57);fill-opacity:0.8;fill-rule:nonzero;"/>
            </g>
        </g>
        <g id="Logo_final" transform="matrix(0.941176,0,0,0.941176,232.647,61.5679)">
            <g transform="matrix(0.375019,0,0,0.323697,70.2922,36.6241)">
                <path d="M494.516,417.517L465.868,390.524L478.619,390.524C479.245,390.524 479.82,390.766 480.275,391.17C480.314,391.206 480.353,391.243 480.391,391.28L495.428,405.448L510.413,391.328C510.483,391.259 510.554,391.191 510.627,391.126C511.074,390.748 511.63,390.524 512.232,390.524L524.988,390.524L496.34,417.517C496.303,417.553 496.266,417.589 496.227,417.623C496.005,417.81 495.728,417.922 495.428,417.922C495.128,417.922 494.851,417.81 494.628,417.623C494.59,417.589 494.552,417.553 494.516,417.517Z" style="fill:rgb(205,79,57);"/>
            </g>
            <g transform="matrix(0.245201,0,0,0.233679,142.843,58.7187)">
                <path d="M512.864,390.524L524.988,390.524L496.915,416.975C496.848,417.043 496.778,417.108 496.707,417.171C496.357,417.458 495.912,417.629 495.428,417.629C494.944,417.629 494.499,417.458 494.149,417.171C494.077,417.108 494.008,417.043 493.94,416.975L465.868,390.524L477.994,390.524C479.007,390.524 479.935,390.9 480.649,391.523C480.727,391.594 480.804,391.666 480.88,391.74L495.428,405.448L510.012,391.706C510.065,391.655 510.119,391.604 510.173,391.555C510.891,390.913 511.833,390.524 512.864,390.524Z" style="fill:rgb(205,79,57);"/>
            </g>
            <path d="M242.983,260.397C246.277,262.874 249.737,265.142 253.343,267.181C243.867,269.688 162.261,293.069 253.058,332.45C305.452,355.176 261.249,372.057 207.124,383.188C196.114,366.441 185.474,348.172 175.553,328.702C160.488,299.135 148.639,269.854 140.198,242.51C137.4,233.447 134.977,224.597 132.936,216.02C131.008,205.781 130,195.22 130,184.424C130,151.234 139.532,120.252 156.006,94.07C186.102,46.238 239.365,14.424 300,14.424C360.653,14.424 413.929,46.257 444.02,94.112C460.478,120.285 470,151.252 470,184.424C470,194.137 469.184,203.661 467.616,212.931C465.235,223.324 462.284,234.135 458.776,245.254C450.397,271.809 438.839,300.122 424.277,328.702C407.68,361.276 389.069,390.49 370.078,414.835C349.908,440.691 329.311,461.055 310.243,474.12C276.906,428.467 311.428,403.419 366.079,380.363C436.148,350.802 313.336,310.231 286.674,300C260.013,289.769 287.722,278.637 287.722,278.637C291.742,279.156 295.84,279.424 300,279.424C325.497,279.424 348.661,269.358 365.732,252.987L308.767,179.901C308.4,179.473 307.856,179.202 307.249,179.202C306.595,179.202 306.013,179.517 305.648,180.003L305.643,180.003L242.983,260.397ZM372.519,245.767C386.541,229.211 395,207.798 395,184.424C395,131.993 352.432,89.424 300,89.424C247.568,89.424 205,131.993 205,184.424C205,197.404 207.609,209.779 212.33,221.053L238.965,186.879C239.004,186.829 239.043,186.779 239.082,186.729C239.724,185.95 240.697,185.453 241.785,185.453C242.83,185.453 243.769,185.912 244.41,186.639L266.233,214.638L304.243,165.871C304.976,165.039 306.05,164.513 307.245,164.513C308.44,164.513 309.514,165.039 310.247,165.871L372.519,245.767ZM216.146,229.085C221.165,238.48 227.716,246.935 235.465,254.115L261.195,221.102L243.3,198.143C242.933,197.717 242.39,197.448 241.785,197.448C241.153,197.448 240.59,197.741 240.223,198.199L240.219,198.199L216.146,229.085Z" style="fill:rgb(205,79,57);"/>
            <g transform="matrix(0.794569,0,0,0.909447,-56.78,51.0301)">
                <ellipse cx="504.9" cy="101.537" rx="17.62" ry="15.394" style="fill:rgb(205,79,57);"/>
            </g>
        </g>
        <g transform="matrix(1,0,0,1,-197.618,55.8266)">
            <g transform="matrix(150,0,0,150,432.23,631.73)">
                <path d="M0.056,-0.687C0.056,-0.702 0.064,-0.711 0.079,-0.713L0.188,-0.723L0.192,-0.723C0.199,-0.723 0.204,-0.721 0.208,-0.716C0.212,-0.712 0.214,-0.707 0.214,-0.7L0.209,-0.384C0.209,-0.277 0.211,-0.165 0.215,-0.048C0.215,-0.035 0.212,-0.026 0.207,-0.019C0.202,-0.013 0.19,-0.008 0.171,-0.003C0.152,0.002 0.123,0.005 0.084,0.008C0.075,0.008 0.068,0.006 0.063,0.002C0.058,-0.001 0.056,-0.007 0.056,-0.014L0.061,-0.352C0.061,-0.451 0.059,-0.562 0.056,-0.687Z" style="fill:rgb(205,79,57);fill-rule:nonzero;"/>
            </g>
            <g transform="matrix(150,0,0,150,472.73,631.73)">
                <path d="M0.631,-0.728C0.638,-0.727 0.641,-0.724 0.641,-0.717C0.641,-0.711 0.638,-0.705 0.632,-0.699C0.605,-0.671 0.572,-0.651 0.535,-0.638C0.498,-0.625 0.45,-0.617 0.391,-0.613C0.388,-0.534 0.387,-0.451 0.387,-0.365C0.387,-0.271 0.389,-0.165 0.393,-0.048C0.393,-0.035 0.39,-0.026 0.385,-0.019C0.38,-0.013 0.368,-0.008 0.349,-0.003C0.33,0.002 0.301,0.005 0.262,0.008C0.254,0.008 0.247,0.006 0.242,0.002C0.237,-0.002 0.234,-0.008 0.234,-0.015L0.239,-0.325C0.239,-0.426 0.238,-0.521 0.235,-0.609C0.168,-0.612 0.102,-0.615 0.035,-0.619C0.017,-0.62 0.008,-0.627 0.008,-0.638C0.008,-0.644 0.011,-0.651 0.016,-0.658L0.057,-0.711C0.065,-0.721 0.076,-0.726 0.09,-0.726C0.183,-0.724 0.272,-0.72 0.359,-0.715C0.446,-0.71 0.498,-0.708 0.514,-0.708C0.553,-0.708 0.586,-0.714 0.615,-0.725L0.631,-0.728Z" style="fill:rgb(205,79,57);fill-rule:nonzero;"/>
            </g>
            <g transform="matrix(150,0,0,150,570.23,631.73)">
                <path d="M0.056,-0.687C0.056,-0.702 0.064,-0.711 0.079,-0.713L0.188,-0.723L0.192,-0.723C0.199,-0.723 0.204,-0.721 0.208,-0.716C0.212,-0.712 0.214,-0.707 0.214,-0.7L0.209,-0.384C0.209,-0.277 0.211,-0.165 0.215,-0.048C0.215,-0.035 0.212,-0.026 0.207,-0.019C0.202,-0.013 0.19,-0.008 0.171,-0.003C0.152,0.002 0.123,0.005 0.084,0.008C0.075,0.008 0.068,0.006 0.063,0.002C0.058,-0.001 0.056,-0.007 0.056,-0.014L0.061,-0.352C0.061,-0.451 0.059,-0.562 0.056,-0.687Z" style="fill:rgb(205,79,57);fill-rule:nonzero;"/>
            </g>
            <g transform="matrix(150,0,0,150,610.73,631.73)">
                <path d="M0.583,-0.715C0.59,-0.712 0.593,-0.706 0.593,-0.697L0.588,-0.366C0.588,-0.243 0.59,-0.136 0.593,-0.044C0.593,-0.029 0.586,-0.019 0.572,-0.016L0.456,0.011L0.448,0.012C0.438,0.012 0.43,0.007 0.424,-0.004C0.395,-0.063 0.352,-0.143 0.295,-0.244C0.238,-0.345 0.198,-0.419 0.174,-0.466C0.175,-0.415 0.179,-0.34 0.184,-0.241C0.189,-0.143 0.193,-0.072 0.194,-0.028C0.194,-0.018 0.192,-0.011 0.187,-0.008C0.182,-0.005 0.174,-0.002 0.163,-0C0.152,0.002 0.126,0.005 0.086,0.008C0.077,0.008 0.07,0.006 0.065,0.002C0.06,-0.001 0.058,-0.007 0.058,-0.014L0.063,-0.359C0.063,-0.467 0.062,-0.564 0.059,-0.65C0.058,-0.664 0.055,-0.676 0.05,-0.687L0.05,-0.688L0.049,-0.695C0.049,-0.698 0.05,-0.702 0.051,-0.705C0.052,-0.708 0.054,-0.71 0.057,-0.711L0.152,-0.72C0.166,-0.72 0.176,-0.714 0.182,-0.702C0.249,-0.551 0.334,-0.378 0.439,-0.184L0.44,-0.343C0.44,-0.446 0.438,-0.56 0.435,-0.687C0.435,-0.698 0.443,-0.706 0.459,-0.711C0.475,-0.717 0.503,-0.72 0.544,-0.72C0.563,-0.72 0.576,-0.718 0.583,-0.715Z" style="fill:rgb(205,79,57);fill-rule:nonzero;"/>
            </g>
            <g transform="matrix(150,0,0,150,705.68,631.73)">
                <path d="M0.604,-0.733C0.609,-0.731 0.612,-0.727 0.612,-0.722C0.612,-0.72 0.611,-0.717 0.609,-0.713C0.608,-0.709 0.606,-0.706 0.604,-0.704C0.582,-0.68 0.558,-0.662 0.531,-0.649C0.504,-0.636 0.469,-0.626 0.426,-0.619C0.383,-0.612 0.328,-0.609 0.261,-0.609L0.236,-0.609C0.235,-0.552 0.234,-0.477 0.234,-0.386C0.281,-0.387 0.322,-0.388 0.355,-0.391C0.388,-0.394 0.436,-0.402 0.499,-0.413L0.517,-0.415C0.522,-0.415 0.525,-0.413 0.525,-0.41C0.525,-0.405 0.521,-0.399 0.514,-0.391C0.485,-0.362 0.45,-0.34 0.408,-0.325C0.367,-0.31 0.309,-0.302 0.234,-0.3L0.234,-0.201C0.234,-0.153 0.244,-0.116 0.264,-0.091C0.285,-0.066 0.321,-0.054 0.372,-0.054C0.402,-0.054 0.462,-0.061 0.553,-0.076L0.565,-0.077C0.574,-0.077 0.579,-0.075 0.579,-0.07C0.579,-0.065 0.572,-0.059 0.559,-0.054C0.449,-0.009 0.357,0.013 0.282,0.013C0.146,0.013 0.078,-0.065 0.078,-0.22C0.082,-0.321 0.084,-0.389 0.084,-0.422C0.084,-0.446 0.082,-0.511 0.079,-0.616L0.032,-0.619C0.025,-0.62 0.019,-0.621 0.014,-0.622C0.01,-0.624 0.008,-0.626 0.008,-0.628C0.008,-0.631 0.011,-0.638 0.018,-0.647L0.068,-0.711C0.069,-0.712 0.069,-0.713 0.07,-0.714C0.071,-0.715 0.073,-0.717 0.076,-0.719C0.079,-0.722 0.084,-0.724 0.09,-0.725C0.096,-0.727 0.102,-0.728 0.108,-0.728L0.141,-0.728C0.172,-0.728 0.217,-0.726 0.274,-0.722C0.332,-0.719 0.375,-0.717 0.403,-0.717C0.462,-0.717 0.524,-0.722 0.588,-0.733L0.596,-0.734L0.604,-0.733Z" style="fill:rgb(205,79,57);fill-rule:nonzero;"/>
            </g>
            <g transform="matrix(150,0,0,150,800.78,631.73)">
                <path d="M0.648,0.076L0.648,0.08C0.648,0.085 0.645,0.088 0.64,0.091C0.635,0.094 0.63,0.095 0.624,0.095C0.559,0.091 0.499,0.059 0.442,-0.002C0.385,-0.063 0.325,-0.16 0.262,-0.295L0.258,-0.309C0.258,-0.322 0.265,-0.328 0.278,-0.328C0.296,-0.328 0.319,-0.334 0.346,-0.346C0.374,-0.359 0.395,-0.375 0.408,-0.395C0.421,-0.416 0.428,-0.437 0.428,-0.459C0.428,-0.46 0.428,-0.464 0.427,-0.473C0.427,-0.482 0.426,-0.49 0.423,-0.496C0.404,-0.546 0.38,-0.581 0.35,-0.602C0.32,-0.623 0.282,-0.635 0.236,-0.636C0.231,-0.493 0.229,-0.378 0.229,-0.292L0.229,-0.278C0.229,-0.207 0.231,-0.119 0.234,-0.016C0.234,-0.013 0.232,-0.009 0.229,-0.005C0.226,-0.002 0.219,0.001 0.208,0.004C0.197,0.007 0.186,0.009 0.173,0.01C0.16,0.011 0.146,0.012 0.131,0.013C0.116,0.014 0.106,0.014 0.101,0.015C0.084,0.015 0.075,0.007 0.075,-0.009C0.081,-0.244 0.084,-0.392 0.084,-0.453C0.084,-0.524 0.083,-0.581 0.082,-0.622L0.031,-0.613L0.024,-0.612C0.017,-0.612 0.013,-0.616 0.013,-0.623C0.013,-0.628 0.015,-0.633 0.02,-0.64L0.066,-0.7C0.069,-0.703 0.073,-0.707 0.079,-0.71C0.085,-0.713 0.093,-0.716 0.103,-0.718C0.113,-0.721 0.124,-0.723 0.136,-0.724C0.149,-0.725 0.16,-0.726 0.17,-0.726C0.18,-0.727 0.189,-0.727 0.197,-0.727L0.243,-0.727C0.294,-0.727 0.341,-0.723 0.383,-0.714C0.426,-0.705 0.462,-0.693 0.491,-0.676C0.521,-0.659 0.544,-0.639 0.56,-0.614C0.576,-0.589 0.584,-0.562 0.584,-0.532C0.584,-0.5 0.578,-0.468 0.567,-0.435C0.556,-0.403 0.536,-0.375 0.508,-0.35C0.48,-0.326 0.447,-0.308 0.409,-0.295C0.426,-0.267 0.442,-0.241 0.457,-0.216C0.472,-0.192 0.486,-0.167 0.501,-0.14C0.516,-0.114 0.527,-0.096 0.533,-0.085C0.539,-0.075 0.55,-0.058 0.567,-0.035C0.584,-0.012 0.609,0.02 0.64,0.061C0.645,0.066 0.647,0.071 0.648,0.076Z" style="fill:rgb(205,79,57);fill-rule:nonzero;"/>
            </g>
            <g transform="matrix(150,0,0,150,892.28,631.73)">
                <path d="M0.68,-0.043C0.683,-0.038 0.684,-0.034 0.684,-0.029C0.684,-0.025 0.682,-0.021 0.678,-0.017C0.675,-0.014 0.67,-0.012 0.665,-0.011L0.588,-0C0.559,-0 0.537,-0.007 0.52,-0.021C0.504,-0.035 0.489,-0.058 0.474,-0.091C0.459,-0.124 0.442,-0.172 0.423,-0.235C0.375,-0.23 0.3,-0.227 0.199,-0.227L0.122,-0.023C0.121,-0.02 0.118,-0.016 0.115,-0.012C0.112,-0.009 0.107,-0.006 0.101,-0.003C0.096,-0.001 0.09,0 0.083,0.001C0.076,0.002 0.058,0.003 0.027,0.003C0.012,0.003 0.004,-0.002 0.004,-0.013C0.004,-0.017 0.005,-0.021 0.007,-0.025L0.092,-0.228L0.069,-0.228C0.053,-0.228 0.045,-0.23 0.045,-0.234C0.045,-0.237 0.049,-0.243 0.057,-0.252L0.122,-0.32C0.127,-0.325 0.131,-0.328 0.134,-0.329L0.284,-0.69C0.289,-0.702 0.298,-0.709 0.311,-0.711L0.42,-0.731L0.427,-0.732C0.438,-0.732 0.446,-0.726 0.45,-0.713C0.463,-0.672 0.483,-0.607 0.51,-0.517C0.537,-0.427 0.557,-0.362 0.57,-0.321L0.627,-0.326C0.634,-0.32 0.637,-0.314 0.637,-0.308C0.637,-0.299 0.62,-0.287 0.585,-0.274C0.619,-0.175 0.651,-0.098 0.68,-0.043ZM0.236,-0.325C0.303,-0.319 0.358,-0.316 0.4,-0.316L0.328,-0.574L0.324,-0.559L0.236,-0.325Z" style="fill:rgb(205,79,57);fill-rule:nonzero;"/>
            </g>
        </g>
    </g>
</svg>
