<?xml version="1.0" encoding="UTF-8" standalone="no"?>
<!DOCTYPE svg PUBLIC "-//W3C//DTD SVG 1.1//EN" "http://www.w3.org/Graphics/SVG/1.1/DTD/svg11.dtd">
<svg width="100%" height="100%" viewBox="0 0 200 200" version="1.1" xmlns="http://www.w3.org/2000/svg" xmlns:xlink="http://www.w3.org/1999/xlink" xml:space="preserve" xmlns:serif="http://www.serif.com/" style="fill-rule:evenodd;clip-rule:evenodd;stroke-linejoin:round;stroke-miterlimit:2;">
    <g transform="matrix(0.959596,0,0,0.959596,4.0404,4.0404)">
        <g transform="matrix(0.944444,0,0,0.944444,1.65146,-1.18431)">
            <g transform="matrix(1.10446,0,0,1.10446,14.869,-10.5289)">
                <path d="M40.061,68.908C40.443,60.347 42.623,52.25 46.232,44.987C51.826,33.729 60.853,24.472 71.939,18.589C80.315,14.145 89.866,11.627 100,11.627C110.122,11.627 119.662,14.139 128.03,18.573C139.126,24.452 148.161,33.711 153.761,44.973C157.754,53.005 160,62.056 160,71.627C160,72.43 159.984,73.229 159.953,74.024C159.941,74.324 159.927,74.623 159.911,74.922C159.877,75.396 159.825,75.891 159.753,76.398C159.714,76.669 159.672,76.934 159.625,77.193C159.602,77.318 159.578,77.442 159.554,77.565C158.895,80.991 158.015,84.467 156.913,87.962C155.579,92.193 153.921,96.454 151.939,100.692C151.032,102.476 150.08,104.287 149.086,106.123C147.926,108.263 146.707,110.436 145.432,112.638C145.066,113.224 144.693,113.808 144.314,114.39L144.371,114.455C136.431,127.935 126.403,142.462 114.682,157.165C111.756,160.835 108.725,164.516 105.594,168.194C103.747,170.365 101.893,172.502 100.035,174.602C98.181,172.504 96.33,170.37 94.486,168.202C93.141,166.622 91.815,165.041 90.508,163.461C91.89,160.605 92.665,157.401 92.665,154.017L92.665,96.917C95.013,97.508 97.47,97.822 100,97.822C116.557,97.822 130,84.379 130,67.822C130,51.264 116.557,37.822 100,37.822C83.443,37.822 70,51.264 70,67.822C70,68.185 70.006,68.547 70.019,68.908L40.061,68.908Z" style="fill:white;"/>
            </g>
            <g transform="matrix(0.974315,0,0,0.974315,1.60142,-4.63227)">
                <g transform="matrix(0.280772,0,0,0.280772,-14.6942,48.0812)">
                    <path d="M159.272,296.913L159.272,210.628L119.945,210.628C117.646,210.628 115.518,209.89 113.785,208.639C111.133,206.724 109.407,203.607 109.407,200.09L109.407,174.559C109.407,167.082 110.969,159.967 113.785,153.523C115.118,150.471 116.733,147.569 118.596,144.851C122.151,139.663 126.611,135.143 131.748,131.519C140.318,125.472 150.77,121.92 162.046,121.92L385.763,121.92C414.815,121.92 438.402,145.506 438.402,174.559L438.402,358.658C427.698,340.559 414.16,324.331 398.4,310.588L398.4,177.828C398.4,169.037 391.263,161.9 382.472,161.9L173.468,161.9C187.725,161.9 199.3,175.348 199.3,191.912L199.3,275.694C185.077,281.224 171.658,288.373 159.272,296.913Z" style="fill:white;"/>
                </g>
                <g transform="matrix(0.384181,0,0,0.268279,-47.3313,53.8272)">
                    <path d="M351.293,239.666C351.293,247.175 347.035,253.272 341.792,253.272L264.649,253.272C259.405,253.272 255.148,247.175 255.148,239.666C255.148,232.157 259.405,226.061 264.649,226.061L341.792,226.061C347.035,226.061 351.293,232.157 351.293,239.666Z" style="fill:white;"/>
                </g>
            </g>
        </g>
        <g transform="matrix(1.44207,0,0,1.18935,-172.585,-13.073)">
            <path d="M161.068,178.309C161.004,178.31 160.939,178.31 160.875,178.31C144.801,178.31 131.75,162.487 131.75,142.997C131.75,123.507 144.801,107.683 160.875,107.683C176.95,107.683 190,123.507 190,142.997C190,162.408 177.055,178.182 161.07,178.309L161.07,163.542L163.523,163.543L163.523,146.207L177.821,146.207L177.821,139.786L163.523,139.786L163.523,122.451L158.228,122.451L158.228,139.786L143.93,139.786L143.93,146.207L158.228,146.207L158.228,163.543L161.068,163.542L161.068,178.309Z" style="fill:white;"/>
        </g>
    </g>
</svg>
