<?xml version="1.0" encoding="UTF-8" standalone="no"?>
<!DOCTYPE svg PUBLIC "-//W3C//DTD SVG 1.1//EN" "http://www.w3.org/Graphics/SVG/1.1/DTD/svg11.dtd">
<svg width="100%" height="100%" viewBox="0 0 200 200" version="1.1" xmlns="http://www.w3.org/2000/svg" xmlns:xlink="http://www.w3.org/1999/xlink" xml:space="preserve" xmlns:serif="http://www.serif.com/" style="fill-rule:evenodd;clip-rule:evenodd;stroke-linejoin:round;stroke-miterlimit:2;">
    <g transform="matrix(0.967817,0,0,0.967817,3.21866,3.21876)">
        <g transform="matrix(1.20459,0,0,1.20459,-9.43617,-12.1653)">
            <path d="M45.802,95.51C44.785,92.996 43.882,90.481 43.092,87.977C42.003,84.527 41.13,81.095 40.474,77.711C40.429,77.477 40.384,77.243 40.341,77.009C40.306,76.809 40.274,76.605 40.245,76.399C40.181,75.953 40.133,75.516 40.099,75.095C40.075,74.676 40.055,74.256 40.04,73.834C40.013,73.102 40,72.366 40,71.627C40,62.061 42.243,53.015 46.232,44.987C51.826,33.729 60.853,24.472 71.939,18.589C80.315,14.145 89.866,11.627 100,11.627C110.122,11.627 119.662,14.139 128.03,18.573C139.126,24.452 148.161,33.711 153.761,44.973C157.754,53.005 160,62.056 160,71.627C160,72.43 159.984,73.229 159.953,74.024C159.941,74.324 159.927,74.623 159.911,74.922C159.877,75.396 159.825,75.891 159.753,76.398C159.714,76.669 159.672,76.934 159.625,77.193C159.602,77.318 159.578,77.442 159.554,77.565C158.895,80.991 158.015,84.467 156.913,87.962C155.579,92.193 153.921,96.454 151.939,100.692C151.032,102.476 150.08,104.287 149.086,106.123C147.926,108.263 146.707,110.436 145.432,112.638C145.066,113.224 144.693,113.808 144.314,114.39L144.371,114.455C136.431,127.935 126.403,142.462 114.682,157.165C111.756,160.835 108.725,164.516 105.594,168.194C103.747,170.365 101.893,172.502 100.035,174.602C98.181,172.504 96.33,170.37 94.486,168.202C93.171,166.656 91.873,165.11 90.593,163.565C96.297,156.268 99.698,147.085 99.698,137.115C99.698,113.382 80.431,94.115 56.698,94.115C52.934,94.115 49.283,94.599 45.802,95.51ZM100,37.822C83.443,37.822 70,51.264 70,67.822C70,84.379 83.443,97.822 100,97.822C116.557,97.822 130,84.379 130,67.822C130,51.264 116.557,37.822 100,37.822Z" style="fill:white;"/>
        </g>
        <g transform="matrix(1.44759,0,0,1.1939,-174.019,-17.7218)">
            <path d="M161.068,178.309C161.004,178.31 160.939,178.31 160.875,178.31C144.801,178.31 131.75,162.487 131.75,142.997C131.75,123.507 144.801,107.683 160.875,107.683C176.95,107.683 190,123.507 190,142.997C190,162.408 177.055,178.182 161.07,178.309L161.07,163.542L163.523,163.543L163.523,146.207L177.821,146.207L177.821,139.786L163.523,139.786L163.523,122.451L158.228,122.451L158.228,139.786L143.93,139.786L143.93,146.207L158.228,146.207L158.228,163.543L161.068,163.542L161.068,178.309Z" style="fill:white;"/>
        </g>
    </g>
</svg>
