<?xml version="1.0" encoding="UTF-8" standalone="no"?>
<!DOCTYPE svg PUBLIC "-//W3C//DTD SVG 1.1//EN" "http://www.w3.org/Graphics/SVG/1.1/DTD/svg11.dtd">
<svg width="100%" height="100%" viewBox="0 0 200 200" version="1.1" xmlns="http://www.w3.org/2000/svg" xmlns:xlink="http://www.w3.org/1999/xlink" xml:space="preserve" xmlns:serif="http://www.serif.com/" style="fill-rule:evenodd;clip-rule:evenodd;stroke-linejoin:round;stroke-miterlimit:2;">
    <g transform="matrix(1.17182,0,0,1.17182,-12.2286,-11.6717)">
        <path d="M65.64,68.228C65.694,68.316 65.748,68.404 65.802,68.492C65.829,68.535 65.857,68.576 65.885,68.619L65.88,68.624C71.237,77.723 78.002,87.527 85.91,97.452C87.887,99.933 89.935,102.421 92.051,104.907C93.296,106.371 94.545,107.811 95.797,109.227C97.05,107.809 98.302,106.367 99.548,104.902C101.661,102.419 103.707,99.935 105.682,97.458C113.594,87.534 120.362,77.729 125.721,68.63L125.683,68.587C125.78,68.437 125.878,68.288 125.975,68.138C129.901,68.141 132.499,68.151 133.148,68.168C137.329,68.281 139.48,75.058 145.214,77.543C150.949,80.027 163.255,74.606 163.255,74.606C163.255,74.606 166.903,81.538 167.142,84.135C167.381,86.733 166.306,91.816 164.275,96.785C162.244,101.755 157.465,97.915 151.611,103.336C145.757,108.757 163.319,126.602 163.677,130.894C164.036,135.186 151.372,152.128 148.863,154.612C146.354,157.097 159.496,167.149 157.465,168.505C155.434,169.86 152.089,179.573 147.19,175.281C142.292,170.989 121.623,162.18 112.663,162.406C103.702,162.631 107.764,175.507 99.043,172.796C90.322,170.086 68.458,171.893 66.786,171.102C65.113,170.312 57.347,162.97 57.706,161.954C58.064,160.937 57.228,150.546 57.228,150.546C57.228,150.546 45.519,140.156 46.117,137.332C46.714,134.508 48.506,124.795 43.966,117.906C39.426,111.016 29.032,116.099 25.09,108.757C21.147,101.416 34.703,85.336 34.703,85.449C34.703,85.562 35.658,87.256 42.229,84.319C48.8,81.383 38.167,77.543 38.406,73.364C38.645,69.185 43.782,68.281 43.782,68.281C43.782,68.281 53.059,68.257 65.64,68.228ZM66.34,44.763C66.327,44.403 66.32,44.042 66.32,43.679C66.32,38.984 67.422,34.543 69.38,30.603C72.126,25.076 76.557,20.532 81.999,17.645C86.11,15.463 90.798,14.227 95.773,14.227C100.741,14.227 105.424,15.46 109.532,17.637C114.979,20.523 119.414,25.067 122.163,30.596C124.123,34.538 125.225,38.981 125.225,43.679C125.225,44.073 125.217,44.466 125.202,44.856C125.196,45.003 125.189,45.15 125.181,45.297C125.165,45.53 125.139,45.772 125.104,46.021C125.085,46.154 125.064,46.285 125.041,46.412C125.03,46.473 125.018,46.534 125.006,46.594C124.683,48.276 124.251,49.982 123.71,51.698C123.055,53.775 122.241,55.866 121.268,57.947C120.823,58.822 120.356,59.711 119.868,60.612C119.298,61.663 118.7,62.73 118.074,63.811C117.894,64.098 117.712,64.385 117.525,64.671L117.553,64.702C113.656,71.32 108.733,78.45 102.98,85.667C101.543,87.469 100.055,89.276 98.519,91.082C97.612,92.147 96.702,93.196 95.79,94.227C94.88,93.197 93.971,92.15 93.066,91.086C91.527,89.277 90.038,87.467 88.6,85.663C82.849,78.446 77.928,71.315 74.033,64.698L74.036,64.694C74.016,64.663 73.996,64.632 73.976,64.601C73.234,63.339 72.53,62.095 71.864,60.873C71.144,59.551 70.469,58.254 69.841,56.987C69.059,55.226 68.392,53.461 67.838,51.705C67.304,50.012 66.875,48.327 66.553,46.666C66.531,46.551 66.509,46.436 66.488,46.321C66.471,46.223 66.455,46.123 66.441,46.022C66.409,45.803 66.386,45.589 66.369,45.382C66.357,45.176 66.348,44.97 66.34,44.763ZM95.773,27.085C87.645,27.085 81.047,33.684 81.047,41.811C81.047,49.939 87.645,56.538 95.773,56.538C103.9,56.538 110.499,49.939 110.499,41.811C110.499,33.684 103.9,27.085 95.773,27.085Z" style="fill:white;"/>
    </g>
</svg>
