<?xml version="1.0" encoding="UTF-8" standalone="no"?>
<!DOCTYPE svg PUBLIC "-//W3C//DTD SVG 1.1//EN" "http://www.w3.org/Graphics/SVG/1.1/DTD/svg11.dtd">
<svg width="100%" height="100%" viewBox="0 0 190 110" version="1.1" xmlns="http://www.w3.org/2000/svg" xmlns:xlink="http://www.w3.org/1999/xlink" xml:space="preserve" xmlns:serif="http://www.serif.com/" style="fill-rule:evenodd;clip-rule:evenodd;stroke-linejoin:round;stroke-miterlimit:2;">
    <g transform="matrix(1,0,0,1,-5,-45.1729)">
        <g transform="matrix(1.01214,0,0,1.01214,0.0873316,-1.23144)">
            <path d="M7.61,94.166L54.352,47.424C55.597,46.437 57.17,45.848 58.881,45.848C62.909,45.848 66.181,49.119 66.181,53.148C66.181,54.859 65.59,56.433 64.603,57.679L29.531,92.75L192.574,92.75L192.574,107.25L29.492,107.25L64.623,142.381C65.599,143.622 66.181,145.187 66.181,146.886C66.181,150.915 62.909,154.186 58.881,154.186C57.158,154.186 55.574,153.588 54.325,152.589L7.803,106.067L6.691,104.916C5.547,103.599 4.854,101.88 4.854,100C4.854,98.231 5.468,96.604 6.494,95.321L7.61,94.166Z" style="fill:white;"/>
        </g>
    </g>
</svg>
