<?xml version="1.0" encoding="UTF-8" standalone="no"?>
<!DOCTYPE svg PUBLIC "-//W3C//DTD SVG 1.1//EN" "http://www.w3.org/Graphics/SVG/1.1/DTD/svg11.dtd">
<svg width="100%" height="100%" viewBox="0 0 200 200" version="1.1" xmlns="http://www.w3.org/2000/svg" xmlns:xlink="http://www.w3.org/1999/xlink" xml:space="preserve" xmlns:serif="http://www.serif.com/" style="fill-rule:evenodd;clip-rule:evenodd;stroke-linejoin:round;stroke-miterlimit:2;">
    <g transform="matrix(0.296875,0,0,0.296875,5,24)">
        <path d="M480,48C480,21.5 458.5,0 432,0L336,0C309.5,0 288,21.5 288,48L288,96L224,96L224,24C224,10.7 213.3,0 200,0C186.7,0 176,10.7 176,24L176,96L112,96L112,24C112,10.7 101.3,0 88,0C74.7,0 64,10.7 64,24L64,96L48,96C21.5,96 0,117.5 0,144L0,464C0,490.5 21.5,512 48,512L592,512C618.5,512 640,490.5 640,464L640,240C640,213.5 618.5,192 592,192L480,192L480,48ZM576,368L576,400C576,408.8 568.8,416 560,416L528,416C519.2,416 512,408.8 512,400L512,368C512,359.2 519.2,352 528,352L560,352C568.8,352 576,359.2 576,368ZM240,416L208,416C199.2,416 192,408.8 192,400L192,368C192,359.2 199.2,352 208,352L240,352C248.8,352 256,359.2 256,368L256,400C256,408.8 248.8,416 240,416ZM128,400C128,408.8 120.8,416 112,416L80,416C71.2,416 64,408.8 64,400L64,368C64,359.2 71.2,352 80,352L112,352C120.8,352 128,359.2 128,368L128,400ZM560,256C568.8,256 576,263.2 576,272L576,304C576,312.8 568.8,320 560,320L528,320C519.2,320 512,312.8 512,304L512,272C512,263.2 519.2,256 528,256L560,256ZM256,176L256,208C256,216.8 248.8,224 240,224L208,224C199.2,224 192,216.8 192,208L192,176C192,167.2 199.2,160 208,160L240,160C248.8,160 256,167.2 256,176ZM112,160C120.8,160 128,167.2 128,176L128,208C128,216.8 120.8,224 112,224L80,224C71.2,224 64,216.8 64,208L64,176C64,167.2 71.2,160 80,160L112,160ZM256,304C256,312.8 248.8,320 240,320L208,320C199.2,320 192,312.8 192,304L192,272C192,263.2 199.2,256 208,256L240,256C248.8,256 256,263.2 256,272L256,304ZM112,320L80,320C71.2,320 64,312.8 64,304L64,272C64,263.2 71.2,256 80,256L112,256C120.8,256 128,263.2 128,272L128,304C128,312.8 120.8,320 112,320ZM416,272L416,304C416,312.8 408.8,320 400,320L368,320C359.2,320 352,312.8 352,304L352,272C352,263.2 359.2,256 368,256L400,256C408.8,256 416,263.2 416,272ZM400,64C408.8,64 416,71.2 416,80L416,112C416,120.8 408.8,128 400,128L368,128C359.2,128 352,120.8 352,112L352,80C352,71.2 359.2,64 368,64L400,64ZM416,176L416,208C416,216.8 408.8,224 400,224L368,224C359.2,224 352,216.8 352,208L352,176C352,167.2 359.2,160 368,160L400,160C408.8,160 416,167.2 416,176Z" style="fill:white;fill-rule:nonzero;"/>
    </g>
</svg>
