<svg width="200" height="200" viewBox="0 0 200 200" fill="none" xmlns="http://www.w3.org/2000/svg">
<path d="M100.022 48.7225C71.6453 48.7225 48.7563 71.6166 48.7563 100C48.7563 128.383 71.6453 151.277 100.022 151.277C128.399 151.277 151.288 128.383 151.288 100C151.288 71.6166 128.399 48.7225 100.022 48.7225ZM100.022 133.337C81.6843 133.337 66.6927 118.387 66.6927 100C66.6927 81.6133 81.6397 66.663 100.022 66.663C118.405 66.663 133.352 81.6133 133.352 100C133.352 118.387 118.36 133.337 100.022 133.337ZM165.343 46.625C165.343 53.2746 159.989 58.5853 153.385 58.5853C146.737 58.5853 141.428 53.2299 141.428 46.625C141.428 40.0201 146.782 34.6647 153.385 34.6647C159.989 34.6647 165.343 40.0201 165.343 46.625ZM199.297 58.7638C198.539 42.7424 194.88 28.5507 183.146 16.8582C171.456 5.16568 157.267 1.50619 141.249 0.70289C124.741 -0.234297 75.2593 -0.234297 58.7507 0.70289C42.7775 1.46156 28.589 5.12105 16.8544 16.8136C5.11991 28.5061 1.50586 42.6978 0.702733 58.7192C-0.234244 75.2315 -0.234244 124.724 0.702733 141.236C1.46124 157.258 5.11991 171.449 16.8544 183.142C28.589 194.834 42.7329 198.494 58.7507 199.297C75.2593 200.234 124.741 200.234 141.249 199.297C157.267 198.538 171.456 194.879 183.146 183.142C194.835 171.449 198.494 157.258 199.297 141.236C200.234 124.724 200.234 75.2761 199.297 58.7638ZM177.97 158.953C174.49 167.701 167.752 174.439 158.963 177.965C145.8 183.186 114.568 181.981 100.022 181.981C85.4769 181.981 54.1997 183.142 41.082 177.965C32.3369 174.484 25.5996 167.745 22.0747 158.953C16.8544 145.788 18.0591 114.549 18.0591 100C18.0591 85.4513 16.8991 54.1671 22.0747 41.0465C25.5549 32.2995 32.2922 25.5606 41.082 22.035C54.2443 16.8136 85.4769 18.0185 100.022 18.0185C114.568 18.0185 145.845 16.8582 158.963 22.035C167.708 25.516 174.445 32.2548 177.97 41.0465C183.19 54.2118 181.986 85.4513 181.986 100C181.986 114.549 183.19 145.833 177.97 158.953Z" fill="url(#paint0_linear_1009_1577)"/>
<defs>
<linearGradient id="paint0_linear_1009_1577" x1="118.5" y1="244.5" x2="100" y2="-1.86302e-05" gradientUnits="userSpaceOnUse">
<stop stop-color="#F9BD19"/>
<stop offset="1" stop-color="#E443AF"/>
</linearGradient>
</defs>
</svg>
