<?xml version="1.0" encoding="UTF-8" standalone="no"?>
<!DOCTYPE svg PUBLIC "-//W3C//DTD SVG 1.1//EN" "http://www.w3.org/Graphics/SVG/1.1/DTD/svg11.dtd">
<svg width="100%" height="100%" viewBox="0 0 200 200" version="1.1" xmlns="http://www.w3.org/2000/svg" xmlns:xlink="http://www.w3.org/1999/xlink" xml:space="preserve" xmlns:serif="http://www.serif.com/" style="fill-rule:evenodd;clip-rule:evenodd;stroke-linejoin:round;stroke-miterlimit:2;">
    <g transform="matrix(1.08571,0,0,1.08571,23.7584,-21.0571)">
        <g transform="matrix(1.43556,0,0,1.66237,-31.889,8.05903)">
            <path d="M118.765,66.723C119.15,68.84 119.35,71.01 119.35,73.22C119.35,96.202 97.743,114.861 71.13,114.861C44.517,114.861 22.91,96.202 22.91,73.22C22.91,50.238 44.517,31.579 71.13,31.579C72.127,31.579 73.118,31.605 74.1,31.657C74.164,31.66 74.229,31.664 74.293,31.667L74.155,31.771C74.28,32.032 74.41,32.292 74.544,32.553C75.047,33.43 75.588,34.327 76.165,35.241C76.374,35.573 76.588,35.907 76.807,36.244C77.146,36.764 77.482,37.297 77.857,37.82C77.872,37.842 77.889,37.863 77.905,37.884L77.902,37.887C81.023,42.465 84.964,47.397 89.572,52.39C90.723,53.639 91.917,54.891 93.149,56.142C93.874,56.878 94.602,57.602 95.331,58.315C96.062,57.602 96.791,56.876 97.517,56.139C98.748,54.89 99.94,53.64 101.091,52.393C102.111,51.288 103.099,50.186 104.052,49.09C105.105,47.879 106.117,46.675 107.084,45.483C113.128,51.321 117.296,58.637 118.765,66.723ZM103.753,42.567C102.798,43.724 101.79,44.895 100.731,46.072C100.396,46.445 100.056,46.818 99.71,47.192C98.835,48.141 97.928,49.092 96.991,50.042C96.438,50.603 95.884,51.155 95.328,51.698C94.773,51.156 94.22,50.604 93.668,50.044C92.73,49.092 91.822,48.14 90.946,47.19C87.829,43.812 85.112,40.47 82.879,37.323C82.601,36.93 82.33,36.541 82.067,36.155L82.069,36.153C82.056,36.137 82.044,36.12 82.032,36.104C81.58,35.44 81.151,34.785 80.745,34.142C80.332,33.488 79.944,32.846 79.581,32.218C88.809,33.629 97.134,37.309 103.753,42.567ZM68.816,35.976C46.054,37.016 27.941,53.306 27.941,73.22C27.941,93.804 47.294,110.516 71.13,110.516C94.967,110.516 114.319,93.804 114.319,73.22C114.319,72.963 114.316,72.707 114.31,72.452C113.317,72.392 113.92,67.834 112.268,66.136C110.424,64.24 106.297,72.734 105.419,73.492C104.541,74.25 100.94,77.89 103.926,73.113C106.912,68.335 101.467,62.344 102.433,62.344C103.399,62.344 97.867,60.524 92.773,61.434C87.68,62.344 93.827,69.549 94.003,70.535C94.178,71.52 88.997,72.582 87.504,72.961C86.011,73.34 88.119,74.705 90.227,76.07C92.334,77.435 78.986,83.351 81.796,87.142C84.606,90.934 81.884,92.83 82.411,94.422C82.938,96.015 79.864,91.692 79.601,97.835C79.337,103.978 69.502,106.177 71.17,104.66C72.839,103.143 67.131,94.271 67.043,93.285C66.955,92.299 65.989,89.645 65.199,89.266C64.409,88.887 65.638,87.142 65.726,86.232C65.814,85.322 63.443,82.744 62.213,83.047C60.984,83.351 53.08,84.791 51.763,84.109C50.446,83.426 48.25,77.284 47.46,75.691C46.67,74.099 49.655,67.425 50.007,66.364C50.358,65.302 58.525,59.311 60.457,59.614C62.389,59.918 61.511,62.572 61.335,64.316C61.159,66.06 71.083,66.667 70.468,65.909C69.853,65.15 66.428,61.055 71.873,62.875C77.318,64.695 84.167,62.42 84.958,61.434C85.748,60.448 85.221,58.932 85.221,58.932C85.221,58.932 83.552,59.993 82.323,57.87C81.094,55.747 73.541,53.32 72.488,52.638C71.434,51.955 61.774,55.368 62.477,54.382C63.179,53.396 63.267,49.452 63.267,49.452C63.267,49.452 73.015,45.13 71.17,43.461C69.513,41.962 68.92,36.973 68.816,35.976Z" style="fill:white;"/>
        </g>
        <g transform="matrix(0.429513,0,0,0.429513,61.9939,19.006)">
            <path d="M40.04,73.834C40.013,73.102 40,72.366 40,71.627C40,62.061 42.243,53.015 46.232,44.987C51.826,33.729 60.853,24.472 71.939,18.589C80.315,14.145 89.866,11.627 100,11.627C110.122,11.627 119.662,14.139 128.03,18.573C139.126,24.452 148.161,33.711 153.761,44.973C157.754,53.005 160,62.056 160,71.627C160,72.43 159.984,73.229 159.953,74.024C159.941,74.324 159.927,74.623 159.911,74.922C159.877,75.396 159.825,75.891 159.753,76.398C159.714,76.669 159.672,76.934 159.625,77.193C159.602,77.318 159.578,77.442 159.554,77.565C158.895,80.991 158.015,84.467 156.913,87.962C155.579,92.193 153.921,96.454 151.939,100.692C151.032,102.476 150.08,104.287 149.086,106.123C147.926,108.263 146.707,110.436 145.432,112.638C145.066,113.224 144.693,113.808 144.314,114.39L144.371,114.455C136.431,127.935 126.403,142.462 114.682,157.165C111.756,160.835 108.725,164.516 105.594,168.194C103.747,170.365 101.893,172.502 100.035,174.602C98.181,172.504 96.33,170.37 94.486,168.202C91.351,164.518 88.317,160.831 85.388,157.156C73.671,142.452 63.648,127.926 55.711,114.445L55.718,114.437C55.678,114.374 55.637,114.312 55.596,114.249C54.085,111.677 52.65,109.144 51.293,106.655C49.826,103.961 48.45,101.319 47.171,98.737C45.58,95.15 44.22,91.553 43.092,87.977C42.003,84.527 41.13,81.095 40.474,77.711C40.429,77.477 40.384,77.243 40.341,77.009C40.306,76.809 40.274,76.605 40.245,76.399C40.181,75.953 40.133,75.516 40.099,75.095C40.075,74.676 40.055,74.256 40.04,73.834ZM100,37.822C83.443,37.822 70,51.264 70,67.822C70,84.379 83.443,97.822 100,97.822C116.557,97.822 130,84.379 130,67.822C130,51.264 116.557,37.822 100,37.822Z" style="fill:white;"/>
        </g>
    </g>
</svg>
