<?xml version="1.0" encoding="UTF-8" standalone="no"?>
<!DOCTYPE svg PUBLIC "-//W3C//DTD SVG 1.1//EN" "http://www.w3.org/Graphics/SVG/1.1/DTD/svg11.dtd">
<svg width="100%" height="100%" viewBox="0 0 200 200" version="1.1" xmlns="http://www.w3.org/2000/svg" xmlns:xlink="http://www.w3.org/1999/xlink" xml:space="preserve" xmlns:serif="http://www.serif.com/" style="fill-rule:evenodd;clip-rule:evenodd;stroke-linejoin:round;stroke-miterlimit:2;">
    <g transform="matrix(1.1875,0,0,1.1875,-6.875,-21.125)">
        <path d="M60.999,64C53.204,63.965 46.572,58.964 44.108,52L16,52C12.689,52 10,49.311 10,46C10,42.689 12.689,40 16,40L44.108,40C46.581,33.012 53.251,28 61.082,28C68.913,28 75.582,33.012 78.056,40L164,40C167.311,40 170,42.689 170,46C170,49.311 167.311,52 164,52L78.056,52C75.582,58.988 68.913,64 61.082,64C61.055,64 61.028,64 61.001,64L61.001,54.999C61.028,55 61.055,55 61.082,55C63.745,55 66.139,53.841 67.788,52C69.214,50.407 70.082,48.304 70.082,46C70.082,43.696 69.214,41.593 67.788,40C66.139,38.159 63.745,37 61.082,37C58.419,37 56.024,38.159 54.376,40C52.949,41.593 52.082,43.696 52.082,46C52.082,48.304 52.949,50.407 54.376,52C56.007,53.822 58.369,54.976 60.999,54.999L60.999,64ZM133.989,120C126.16,119.998 119.492,114.987 117.019,108L16,108C12.689,108 10,105.311 10,102C10,98.689 12.689,96 16,96L117.019,96C119.493,89.012 126.162,84 133.993,84C141.824,84 148.494,89.012 150.968,96L164,96C167.311,96 170,98.689 170,102C170,105.311 167.311,108 164,108L150.968,108C148.494,114.988 141.824,120 133.993,120C133.992,120 133.991,120 133.99,120L133.99,111C133.991,111 133.992,111 133.993,111C136.656,111 139.051,109.841 140.699,108C142.126,106.407 142.993,104.304 142.993,102C142.993,99.696 142.126,97.593 140.699,96C139.051,94.159 136.656,93 133.993,93C131.33,93 128.936,94.159 127.287,96C125.861,97.593 124.993,99.696 124.993,102C124.993,104.304 125.861,106.407 127.287,108C128.935,109.84 131.327,110.999 133.989,111L133.989,120ZM81.994,176C74.166,175.997 67.499,170.986 65.026,164L16,164C12.689,164 10,161.311 10,158C10,154.689 12.689,152 16,152L65.026,152C67.499,145.012 74.169,140 82,140C89.831,140 96.501,145.012 98.974,152L164,152C167.311,152 170,154.689 170,158C170,161.311 167.311,164 164,164L98.974,164C96.501,170.988 89.831,176 82,176C81.999,176 81.997,176 81.996,176L81.996,167C81.997,167 81.999,167 82,167C84.663,167 87.058,165.841 88.706,164C90.132,162.407 91,160.304 91,158C91,155.696 90.132,153.593 88.706,152C87.058,150.159 84.663,149 82,149C79.337,149 76.942,150.159 75.294,152C73.868,153.593 73,155.696 73,158C73,160.304 73.868,162.407 75.294,164C76.941,165.839 79.333,166.998 81.994,167L81.994,176Z" style="fill:white;"/>
    </g>
</svg>
