<?xml version="1.0" encoding="UTF-8" standalone="no"?>
<!DOCTYPE svg PUBLIC "-//W3C//DTD SVG 1.1//EN" "http://www.w3.org/Graphics/SVG/1.1/DTD/svg11.dtd">
<svg width="100%" height="100%" viewBox="0 0 200 200" version="1.1" xmlns="http://www.w3.org/2000/svg" xmlns:xlink="http://www.w3.org/1999/xlink" xml:space="preserve" xmlns:serif="http://www.serif.com/" style="fill-rule:evenodd;clip-rule:evenodd;stroke-linejoin:round;stroke-miterlimit:2;">
    <g id="icon" transform="matrix(1.11765,0,0,1.11765,-12.0441,3.88235)">
        <g transform="matrix(0.944444,0,0,0.944444,1.65146,-1.18431)">
            <g transform="matrix(1.10446,0,0,1.10446,14.869,-10.5289)">
                <path d="M92.665,138.256L92.665,96.917C95.013,97.508 97.47,97.822 100,97.822C116.557,97.822 130,84.379 130,67.822C130,51.264 116.557,37.822 100,37.822C83.443,37.822 70,51.264 70,67.822C70,68.185 70.006,68.547 70.019,68.908L40.061,68.908C40.443,60.347 42.623,52.25 46.232,44.987C51.826,33.729 60.853,24.472 71.939,18.589C80.315,14.145 89.866,11.627 100,11.627C110.122,11.627 119.662,14.139 128.03,18.573C139.126,24.452 148.161,33.711 153.761,44.973C157.754,53.005 160,62.056 160,71.627C160,72.43 159.984,73.229 159.953,74.024C159.941,74.324 159.927,74.623 159.911,74.922C159.877,75.396 159.825,75.891 159.753,76.398C159.714,76.669 159.672,76.934 159.625,77.193C159.602,77.318 159.578,77.442 159.554,77.565C158.895,80.991 158.015,84.467 156.913,87.962C155.579,92.193 153.921,96.454 151.939,100.692C151.032,102.476 150.08,104.287 149.086,106.123C147.926,108.263 146.707,110.436 145.432,112.638C145.066,113.224 144.693,113.808 144.314,114.39L144.371,114.455C136.431,127.935 126.403,142.462 114.682,157.165C111.756,160.835 108.725,164.516 105.594,168.194C103.747,170.365 101.893,172.502 100.035,174.602C98.181,172.504 96.33,170.37 94.486,168.202C93.141,166.622 91.815,165.041 90.508,163.461C91.295,161.834 91.885,160.094 92.248,158.273C93.701,156.238 94.923,154.262 95.922,152.429C96.743,150.923 97.098,149.375 97.043,147.815C97.101,146.227 96.708,144.663 95.801,143.156C94.816,141.52 93.775,139.88 92.665,138.256Z" style="fill:white;"/>
            </g>
            <g transform="matrix(0.974315,0,0,0.974315,1.60142,-4.63227)">
                <g transform="matrix(0.280772,0,0,0.280772,-14.6942,48.0812)">
                    <path d="M159.272,296.913L159.272,210.628L119.945,210.628C117.646,210.628 115.518,209.89 113.785,208.639C111.133,206.724 109.407,203.607 109.407,200.09L109.407,174.559C109.407,167.082 110.969,159.967 113.785,153.523C115.118,150.471 116.733,147.569 118.596,144.851C122.151,139.663 126.611,135.143 131.748,131.519C140.318,125.472 150.77,121.92 162.046,121.92L385.763,121.92C414.815,121.92 438.402,145.506 438.402,174.559L438.402,321.603C426.672,310.352 413.459,300.064 398.4,291.336L398.4,177.828C398.4,169.037 391.263,161.9 382.472,161.9L173.468,161.9C187.725,161.9 199.3,175.348 199.3,191.912L199.3,275.694C186.251,280.767 173.881,287.203 162.363,294.825C161.325,295.512 160.295,296.207 159.272,296.913Z" style="fill:white;"/>
                </g>
                <g transform="matrix(0.384181,0,0,0.268279,-47.3313,53.8272)">
                    <path d="M351.293,239.666C351.293,247.175 347.035,253.272 341.792,253.272L264.649,253.272C259.405,253.272 255.148,247.175 255.148,239.666C255.148,232.157 259.405,226.061 264.649,226.061L341.792,226.061C347.035,226.061 351.293,232.157 351.293,239.666Z" style="fill:white;"/>
                </g>
            </g>
        </g>
        <g transform="matrix(0.488622,0,0,0.488622,14.0469,93.1285)">
            <path d="M98.926,159.365C50.047,158.967 25.924,133.866 10.107,109.37C8.506,106.89 7.812,104.317 7.914,101.705C7.817,99.137 8.444,96.592 9.893,94.113C21.503,74.257 50.221,44.113 99.893,44.113C149.566,44.113 173.949,69.42 189.893,94.113C191.494,96.593 192.188,99.166 192.086,101.778C192.183,104.346 191.556,106.891 190.107,109.37C178.497,129.225 149.779,159.37 100.107,159.37C99.828,159.37 99.55,159.369 99.273,159.367C99.158,159.367 99.043,159.366 98.929,159.365L98.929,138.726C99.043,138.729 99.159,138.732 99.273,138.734C99.515,138.739 99.758,138.741 100,138.741C120.421,138.741 137,122.162 137,101.741C137,81.321 120.421,64.741 100,64.741C79.579,64.741 63,81.321 63,101.741C63,121.803 79.001,138.156 98.926,138.726L98.926,159.365ZM100,78.741C112.694,78.741 123,89.047 123,101.741C123,114.436 112.694,124.741 100,124.741C87.306,124.741 77,114.436 77,101.741C77,89.047 87.306,78.741 100,78.741Z" style="fill:white;"/>
        </g>
    </g>
</svg>
