<?xml version="1.0" encoding="UTF-8" standalone="no"?>
<!DOCTYPE svg PUBLIC "-//W3C//DTD SVG 1.1//EN" "http://www.w3.org/Graphics/SVG/1.1/DTD/svg11.dtd">
<svg width="100%" height="100%" viewBox="0 0 200 200" version="1.1" xmlns="http://www.w3.org/2000/svg" xmlns:xlink="http://www.w3.org/1999/xlink" xml:space="preserve" xmlns:serif="http://www.serif.com/" style="fill-rule:evenodd;clip-rule:evenodd;stroke-linejoin:round;stroke-miterlimit:2;">
    <g transform="matrix(1.97014,0,0,2.28141,-40.1358,-67.0445)">
        <path d="M118.765,66.723C119.15,68.84 119.35,71.01 119.35,73.22C119.35,96.202 97.743,114.861 71.13,114.861C44.517,114.861 22.91,96.202 22.91,73.22C22.91,50.238 44.517,31.579 71.13,31.579C72.193,31.579 73.247,31.609 74.293,31.667C75.353,31.727 76.403,31.816 77.443,31.933C87.804,33.105 97.134,37.123 104.347,43.046C111.866,49.221 117.083,57.468 118.765,66.723ZM114.31,72.452C113.317,72.392 113.92,67.834 112.268,66.136C110.424,64.24 106.297,72.734 105.419,73.492C104.541,74.25 100.94,77.89 103.926,73.113C106.912,68.335 101.467,62.344 102.433,62.344C103.399,62.344 97.867,60.524 92.773,61.434C87.68,62.344 93.827,69.549 94.003,70.535C94.178,71.52 88.997,72.582 87.504,72.961C86.011,73.34 88.119,74.705 90.227,76.07C92.334,77.435 78.986,83.351 81.796,87.142C84.606,90.934 81.884,92.83 82.411,94.422C82.938,96.015 79.864,91.692 79.601,97.835C79.337,103.978 69.502,106.177 71.17,104.66C72.839,103.143 67.131,94.271 67.043,93.285C66.955,92.299 65.989,89.645 65.199,89.266C64.409,88.887 65.638,87.142 65.726,86.232C65.814,85.322 63.443,82.744 62.213,83.047C60.984,83.351 53.08,84.791 51.763,84.109C50.446,83.426 48.25,77.284 47.46,75.691C46.67,74.099 49.655,67.425 50.007,66.364C50.358,65.302 58.525,59.311 60.457,59.614C62.389,59.918 61.511,62.572 61.335,64.316C61.159,66.06 71.083,66.667 70.468,65.909C69.853,65.15 66.428,61.055 71.873,62.875C77.318,64.695 84.167,62.42 84.958,61.434C85.748,60.448 85.221,58.932 85.221,58.932C85.221,58.932 83.552,59.993 82.323,57.87C81.094,55.747 73.541,53.32 72.488,52.638C71.434,51.955 61.774,55.368 62.477,54.382C63.179,53.396 63.267,49.452 63.267,49.452C63.267,49.452 73.015,45.13 71.17,43.461C69.513,41.962 68.92,36.973 68.816,35.976C46.054,37.016 27.941,53.306 27.941,73.22C27.941,93.804 47.294,110.516 71.13,110.516C94.967,110.516 114.319,93.804 114.319,73.22C114.319,72.963 114.316,72.707 114.31,72.452Z" style="fill:white;"/>
    </g>
</svg>
