<?xml version="1.0" encoding="UTF-8" standalone="no"?>
<!DOCTYPE svg PUBLIC "-//W3C//DTD SVG 1.1//EN" "http://www.w3.org/Graphics/SVG/1.1/DTD/svg11.dtd">
<svg width="100%" height="100%" viewBox="0 0 200 200" version="1.1" xmlns="http://www.w3.org/2000/svg" xmlns:xlink="http://www.w3.org/1999/xlink" xml:space="preserve" xmlns:serif="http://www.serif.com/" style="fill-rule:evenodd;clip-rule:evenodd;stroke-linejoin:round;stroke-miterlimit:2;">
    <g transform="matrix(7.91667,0,0,7.91667,-26.6667,-10.8333)">
        <path d="M16.003,7.847C12.597,7.847 9.851,10.594 9.851,14C9.851,17.406 12.597,20.153 16.003,20.153C19.408,20.153 22.155,17.406 22.155,14C22.155,10.594 19.408,7.847 16.003,7.847ZM16.003,18C13.802,18 12.003,16.206 12.003,14C12.003,11.794 13.797,10 16.003,10C18.209,10 20.002,11.794 20.002,14C20.002,16.206 18.203,18 16.003,18ZM23.841,7.595C23.841,8.393 23.199,9.03 22.406,9.03C21.609,9.03 20.971,8.388 20.971,7.595C20.971,6.802 21.614,6.16 22.406,6.16C23.199,6.16 23.841,6.802 23.841,7.595ZM27.916,9.052C27.825,7.129 27.386,5.426 25.978,4.023C24.575,2.62 22.872,2.181 20.95,2.084C18.969,1.972 13.031,1.972 11.05,2.084C9.133,2.175 7.431,2.615 6.023,4.018C4.614,5.421 4.181,7.124 4.084,9.046C3.972,11.028 3.972,16.967 4.084,18.948C4.175,20.871 4.614,22.574 6.023,23.977C7.431,25.38 9.128,25.819 11.05,25.916C13.031,26.028 18.969,26.028 20.95,25.916C22.872,25.825 24.575,25.386 25.978,23.977C27.38,22.574 27.819,20.871 27.916,18.948C28.028,16.967 28.028,11.033 27.916,9.052ZM25.356,21.074C24.939,22.124 24.13,22.933 23.076,23.356C21.496,23.982 17.748,23.838 16.003,23.838C14.257,23.838 10.504,23.977 8.93,23.356C7.88,22.938 7.072,22.129 6.649,21.074C6.023,19.495 6.167,15.746 6.167,14C6.167,12.254 6.028,8.5 6.649,6.926C7.067,5.876 7.875,5.067 8.93,4.644C10.509,4.018 14.257,4.162 16.003,4.162C17.748,4.162 21.501,4.023 23.076,4.644C24.125,5.062 24.933,5.871 25.356,6.926C25.983,8.505 25.838,12.254 25.838,14C25.838,15.746 25.983,19.5 25.356,21.074Z" style="fill:white;fill-rule:nonzero;"/>
    </g>
</svg>
