<?xml version="1.0" encoding="UTF-8" standalone="no"?>
<!DOCTYPE svg PUBLIC "-//W3C//DTD SVG 1.1//EN" "http://www.w3.org/Graphics/SVG/1.1/DTD/svg11.dtd">
<svg width="100%" height="100%" viewBox="0 0 340 200" version="1.1" xmlns="http://www.w3.org/2000/svg" xmlns:xlink="http://www.w3.org/1999/xlink" xml:space="preserve" xmlns:serif="http://www.serif.com/" style="fill-rule:evenodd;clip-rule:evenodd;stroke-linejoin:round;stroke-miterlimit:2;">
    <g transform="matrix(0.95,0,0,0.95,-161.842,-140.848)">
        <path d="M337.374,328.782L337.374,264.964L325.819,264.964C325.144,264.964 324.518,264.747 324.009,264.38C323.23,263.817 322.723,262.901 322.723,261.868L322.723,254.367C322.723,252.17 323.182,250.079 324.009,248.186C324.401,247.289 324.875,246.437 325.423,245.638C326.467,244.114 327.778,242.786 329.287,241.721C331.805,239.945 334.876,238.901 338.189,238.901L403.918,238.901C412.454,238.901 419.384,245.831 419.384,254.367L419.384,328.078C419.384,336.614 412.454,343.544 403.918,343.544L352.136,343.544C350.725,343.544 349.359,343.345 348.067,342.975C346.204,342.441 344.492,341.55 343.008,340.381C341.411,339.122 340.079,337.54 339.113,335.734C338.003,333.662 337.374,331.295 337.374,328.782ZM349.134,259.465L349.134,327.117C349.134,329.7 351.231,331.797 353.814,331.797L402.952,331.797C405.534,331.797 407.631,329.7 407.631,327.117L407.631,255.327C407.631,252.744 405.534,250.647 402.952,250.647L341.545,250.647C345.733,250.647 349.134,254.598 349.134,259.465ZM397.652,293.909C397.652,296.017 395.94,297.729 393.832,297.729L362.82,297.729C360.712,297.729 359,296.017 359,293.909C359,291.801 360.712,290.09 362.82,290.09L393.832,290.09C395.94,290.09 397.652,291.801 397.652,293.909ZM397.652,276.375C397.652,278.483 395.94,280.195 393.832,280.195L362.82,280.195C360.712,280.195 359,278.483 359,276.375C359,274.267 360.712,272.556 362.82,272.556L393.832,272.556C395.94,272.556 397.652,274.267 397.652,276.375ZM397.652,311.677C397.652,313.785 395.94,315.496 393.832,315.496L362.82,315.496C360.712,315.496 359,313.785 359,311.677C359,309.569 360.712,307.857 362.82,307.857L393.832,307.857C395.94,307.857 397.652,309.569 397.652,311.677ZM321.419,183.355C321.386,183.355 321.353,183.355 321.32,183.355C313.088,183.355 306.405,176.672 306.405,168.44C306.405,160.208 313.088,153.524 321.32,153.524C329.552,153.524 336.235,160.208 336.235,168.44C336.235,176.639 329.605,183.301 321.419,183.355ZM321.419,177.118L322.676,177.118L322.676,169.796L329.998,169.796L329.998,167.084L322.676,167.084L322.676,159.762L319.964,159.762L319.964,167.084L312.642,167.084L312.642,169.796L319.964,169.796L319.964,177.118L321.419,177.118ZM342.715,210.186C337.538,206.334 315.707,192.694 278.815,204.244L284.561,189.758C284.561,189.758 323.779,182.57 349.186,204.34L353.295,200.627L353.782,216.22L338.319,214.158L342.715,210.186ZM269.767,192.203C269.926,193.66 270.007,195.14 270.007,196.639C270.007,197.181 269.997,197.72 269.975,198.257C269.967,198.459 269.958,198.661 269.947,198.863C269.924,199.183 269.889,199.517 269.84,199.86C269.814,200.042 269.786,200.221 269.754,200.396C269.738,200.48 269.723,200.564 269.706,200.647C269.262,202.96 268.667,205.305 267.924,207.664C267.024,210.521 265.904,213.396 264.566,216.257C263.954,217.461 263.312,218.683 262.64,219.922C261.858,221.366 261.035,222.833 260.175,224.32C259.927,224.715 259.676,225.109 259.42,225.502L259.458,225.546C254.099,234.645 247.331,244.449 239.42,254.373C237.445,256.85 235.399,259.334 233.286,261.817C232.039,263.282 230.788,264.724 229.534,266.142C228.282,264.726 227.033,263.286 225.788,261.823C223.673,259.336 221.625,256.848 219.648,254.367C211.74,244.443 204.974,234.638 199.618,225.539L199.622,225.534C199.595,225.492 199.567,225.449 199.54,225.407C198.52,223.671 197.551,221.961 196.636,220.281C195.645,218.463 194.717,216.68 193.853,214.937C192.779,212.516 191.861,210.088 191.1,207.675C190.365,205.346 189.776,203.03 189.333,200.746C189.303,200.588 189.273,200.43 189.243,200.272C189.22,200.137 189.198,199.999 189.179,199.86C189.135,199.559 189.103,199.264 189.08,198.98C189.064,198.697 189.051,198.413 189.04,198.129C189.022,197.635 189.013,197.138 189.013,196.639C189.013,190.183 190.527,184.077 193.22,178.659C196.995,171.06 203.088,164.812 210.571,160.841C216.224,157.842 222.67,156.142 229.51,156.142C236.342,156.142 242.781,157.838 248.429,160.831C255.918,164.799 262.017,171.048 265.796,178.649C267.866,182.812 269.24,187.38 269.766,192.202L249.673,192.202C248.729,181.901 240.056,173.822 229.51,173.822C218.335,173.822 209.262,182.895 209.262,194.071C209.262,205.246 218.335,214.319 229.51,214.319C240.686,214.319 249.759,205.246 249.759,194.071C249.759,193.441 249.73,192.818 249.674,192.203L269.767,192.203ZM366.81,228.187C367.205,217.82 369.813,208.016 374.176,199.235C380.835,185.833 391.58,174.814 404.777,167.812C414.747,162.522 426.116,159.524 438.179,159.524C450.228,159.524 461.585,162.514 471.546,167.793C484.754,174.791 495.509,185.812 502.174,199.219C505.824,206.56 508.248,214.617 509.177,223.12L473.74,223.12C472.074,204.953 456.778,190.705 438.179,190.705C418.47,190.705 402.468,206.707 402.468,226.416C402.468,227.01 402.483,227.6 402.512,228.187L366.81,228.187ZM430.147,261.219C432.729,261.813 435.418,262.127 438.179,262.127C457.889,262.127 473.89,246.126 473.89,226.416C473.89,225.306 473.84,224.208 473.74,223.123L509.177,223.123C509.457,225.692 509.601,228.303 509.601,230.946C509.601,231.902 509.582,232.853 509.545,233.799C509.531,234.156 509.514,234.513 509.495,234.868C509.455,235.433 509.393,236.022 509.307,236.626C509.261,236.947 509.21,237.263 509.154,237.572C509.127,237.721 509.099,237.868 509.07,238.014C508.286,242.093 507.238,246.23 505.927,250.39C504.339,255.428 502.365,260.499 500.005,265.544C498.926,267.668 497.793,269.824 496.609,272.009C495.229,274.556 493.778,277.143 492.26,279.764C491.824,280.461 491.381,281.157 490.93,281.85L490.997,281.927C481.546,297.974 469.609,315.265 455.656,332.767C452.173,337.136 448.565,341.518 444.838,345.897C442.639,348.48 440.433,351.024 438.221,353.524C436.014,351.027 433.811,348.486 431.615,345.906C430.267,344.321 428.935,342.736 427.618,341.152C429.234,338.022 430.147,334.471 430.147,330.708L430.147,261.219Z" style="fill:white;"/>
    </g>
</svg>
