<?xml version="1.0" encoding="UTF-8" standalone="no"?>
<!DOCTYPE svg PUBLIC "-//W3C//DTD SVG 1.1//EN" "http://www.w3.org/Graphics/SVG/1.1/DTD/svg11.dtd">
<svg width="100%" height="100%" viewBox="0 0 200 200" version="1.1" xmlns="http://www.w3.org/2000/svg" xmlns:xlink="http://www.w3.org/1999/xlink" xml:space="preserve" xmlns:serif="http://www.serif.com/" style="fill-rule:evenodd;clip-rule:evenodd;stroke-linejoin:round;stroke-miterlimit:2;">
    <g transform="matrix(1.17118,0,0,1.17118,-17.1052,-17.1183)">
        <path d="M40.008,101.012C40.003,100.676 40,100.338 40,100C40,95.87 40.418,91.837 41.214,87.941C41.214,87.941 24.689,72.528 24.681,72.52C24.085,71.956 23.892,71.07 24.211,70.305C24.218,70.287 24.226,70.27 24.234,70.252C25.863,66.486 27.968,62.387 30.476,58.216C33,54.016 35.65,50.209 38.227,46.99C38.233,46.983 38.238,46.976 38.244,46.969C38.759,46.335 39.609,46.083 40.378,46.318C40.423,46.332 40.468,46.347 40.512,46.364L61.758,53.682L61.826,53.723C67.198,49.285 73.354,45.764 80.054,43.4C80.054,43.4 84.752,21.299 84.755,21.287C84.931,20.486 85.59,19.864 86.411,19.743C86.43,19.741 86.449,19.738 86.468,19.736C90.535,19.192 95.133,18.885 100,18.885C104.9,18.885 109.527,19.196 113.614,19.747C113.623,19.748 113.632,19.749 113.641,19.75C114.45,19.865 115.104,20.464 115.299,21.244C115.31,21.29 115.32,21.336 115.328,21.383L120,43.362L120,43.42C126.698,45.79 132.851,49.317 138.219,53.76C138.219,53.76 159.607,46.396 159.618,46.392C160.396,46.131 161.268,46.375 161.794,47.016C161.807,47.031 161.819,47.046 161.831,47.062C164.391,50.267 167.022,54.051 169.529,58.223C172.052,62.423 174.169,66.55 175.802,70.336C175.806,70.345 175.81,70.353 175.813,70.361C176.131,71.113 175.954,71.982 175.386,72.551C175.353,72.584 175.318,72.617 175.283,72.648L158.849,87.973L158.798,88.003C159.586,91.88 160,95.892 160,100C160,104.128 159.582,108.159 158.787,112.053C158.787,112.053 175.314,127.464 175.322,127.472C175.918,128.036 176.112,128.921 175.792,129.687C175.785,129.705 175.777,129.722 175.769,129.74C174.141,133.506 172.036,137.605 169.529,141.777C167.005,145.977 164.355,149.784 161.779,153.003C161.773,153.01 161.767,153.017 161.762,153.024C161.247,153.659 160.397,153.91 159.627,153.676C159.583,153.662 159.538,153.646 159.493,153.63L138.247,146.314L138.179,146.273C132.806,150.712 126.648,154.235 119.946,156.6C119.946,156.6 115.248,178.701 115.245,178.713C115.069,179.514 114.41,180.136 113.589,180.257C113.57,180.259 113.551,180.262 113.532,180.264C109.465,180.808 104.867,181.115 100,181.115C95.1,181.115 90.473,180.804 86.386,180.253C86.377,180.252 86.368,180.251 86.359,180.25C85.55,180.135 84.896,179.536 84.701,178.756C84.69,178.71 84.68,178.664 84.672,178.617L80,156.638L80,156.58C73.287,154.205 67.121,150.667 61.745,146.21C61.745,146.21 40.351,153.558 40.34,153.562C39.563,153.822 38.69,153.577 38.165,152.936C38.152,152.921 38.14,152.906 38.128,152.89C35.57,149.683 32.943,145.897 30.439,141.723C27.918,137.521 25.805,133.393 24.175,129.605C24.171,129.597 24.167,129.588 24.164,129.58C23.846,128.828 24.024,127.959 24.592,127.39C24.626,127.357 24.661,127.325 24.696,127.294L41.142,111.982L41.193,111.951C40.475,108.408 40.071,104.753 40.008,101.014L69.004,101.014C69.001,101.167 69,101.319 69,101.472C69,118.582 82.891,132.472 100,132.472C117.109,132.472 131,118.582 131,101.472C131,84.363 117.109,70.472 100,70.472C83.044,70.472 69.25,84.115 69.004,101.012L40.008,101.012Z" style="fill:white;"/>
    </g>
</svg>
