<?xml version="1.0" encoding="UTF-8" standalone="no"?>
<!DOCTYPE svg PUBLIC "-//W3C//DTD SVG 1.1//EN" "http://www.w3.org/Graphics/SVG/1.1/DTD/svg11.dtd">
<svg width="100%" height="100%" viewBox="0 0 200 200" version="1.1" xmlns="http://www.w3.org/2000/svg" xmlns:xlink="http://www.w3.org/1999/xlink" xml:space="preserve" xmlns:serif="http://www.serif.com/" style="fill-rule:evenodd;clip-rule:evenodd;stroke-linejoin:round;stroke-miterlimit:2;">
    <g transform="matrix(1.08384,0,0,1.08384,-8.38387,-8.58867)">
        <g transform="matrix(0.859026,0,0,0.859026,14.0608,2.54955)">
            <path d="M80.228,131.661C82.032,126.763 84.23,122.191 86.763,118.025C88.487,115.19 90.367,112.542 92.384,110.109C97.666,103.736 103.889,98.829 110.723,95.845C111.215,95.657 111.701,95.456 112.18,95.242C122.675,90.569 130,80.044 130,67.822C130,66.889 129.957,65.966 129.874,65.055L159.643,65.055C159.879,67.214 160,69.406 160,71.627C160,72.43 159.984,73.229 159.953,74.024C159.941,74.324 159.927,74.623 159.911,74.922C159.877,75.396 159.825,75.891 159.753,76.398C159.714,76.669 159.672,76.934 159.625,77.193C159.602,77.318 159.578,77.442 159.554,77.565C158.895,80.991 158.015,84.467 156.913,87.962C155.579,92.193 153.921,96.454 151.939,100.692C151.767,101.031 151.593,101.37 151.417,101.711C151.241,102.053 151.063,102.397 150.884,102.741C150.301,103.858 149.702,104.986 149.086,106.123C148.538,107.133 147.977,108.151 147.404,109.175C146.763,110.321 146.105,111.475 145.432,112.638C145.066,113.224 144.693,113.808 144.314,114.39L144.371,114.455C143.033,116.726 141.636,119.027 140.182,121.353C138.627,123.84 137.007,126.355 135.324,128.895C129.235,138.083 122.318,147.586 114.682,157.165C112.288,160.167 109.824,163.177 107.292,166.187C106.729,166.856 106.163,167.525 105.594,168.194C104.294,169.722 102.99,171.233 101.685,172.726C101.135,173.355 100.586,173.98 100.035,174.602C98.181,172.504 96.33,170.37 94.486,168.202C93.78,167.373 93.079,166.543 92.384,165.714C89.99,162.859 87.657,160.004 85.388,157.156C85.107,156.803 84.827,156.451 84.548,156.099C83.845,155.211 83.148,154.323 82.457,153.436C79.864,149.644 78.379,145.236 78.379,140.534C78.379,138.606 78.628,136.728 79.102,134.921C79.458,133.819 79.834,132.732 80.228,131.661ZM40.085,68.407C40.529,60.031 42.694,52.109 46.232,44.987C51.826,33.729 60.853,24.472 71.939,18.589C80.315,14.145 89.866,11.627 100,11.627C110.122,11.627 119.662,14.139 128.03,18.573C139.126,24.452 148.161,33.711 153.761,44.973C156.827,51.141 158.863,57.909 159.643,65.053L129.874,65.053C129.034,55.893 124.069,47.92 116.856,43.008C112.051,39.735 106.247,37.822 100,37.822C83.443,37.822 70,51.264 70,67.822C70,68.017 70.002,68.213 70.006,68.407L40.085,68.407Z" style="fill:white;"/>
        </g>
        <g transform="matrix(2.15708,0,0,1.01299,-94.7142,-8.54331)">
            <ellipse cx="90.267" cy="181.924" rx="13.908" ry="11.942" style="fill:white;"/>
        </g>
    </g>
</svg>
