<?xml version="1.0" encoding="UTF-8" standalone="no"?>
<!DOCTYPE svg PUBLIC "-//W3C//DTD SVG 1.1//EN" "http://www.w3.org/Graphics/SVG/1.1/DTD/svg11.dtd">
<svg width="100%" height="100%" viewBox="0 0 200 200" version="1.1" xmlns="http://www.w3.org/2000/svg" xmlns:xlink="http://www.w3.org/1999/xlink" xml:space="preserve" xmlns:serif="http://www.serif.com/" style="fill-rule:evenodd;clip-rule:evenodd;stroke-linejoin:round;stroke-miterlimit:2;">
    <g transform="matrix(1.8406,0,0,1.8406,-53.321,-45.5952)">
        <path d="M76.414,113.611C76.397,113.611 76.379,113.611 76.361,113.611C52.595,113.611 33.3,94.316 33.3,70.55C33.3,46.784 52.595,27.488 76.361,27.488C100.127,27.488 119.422,46.784 119.422,70.55C119.422,80.498 116.041,89.663 110.367,96.957L133.3,119.89L122.473,130.716L98.96,107.203C92.404,111.257 84.681,113.601 76.415,113.611L76.415,101.171C83.605,101.158 90.216,98.663 95.437,94.497C97.237,93.061 98.872,91.426 100.308,89.626C104.485,84.392 106.982,77.76 106.982,70.55C106.982,53.649 93.261,39.928 76.361,39.928C59.461,39.928 45.74,53.649 45.74,70.55C45.74,87.45 59.461,101.171 76.361,101.171C76.379,101.171 76.397,101.171 76.414,101.171L76.414,113.611Z" style="fill:white;"/>
    </g>
</svg>
