<svg xmlns="http://www.w3.org/2000/svg" width="177" height="192" viewBox="0 0 132.75 144"><path d="M57.555 143.906v-22.125h44.242l.008-11.062H68.617l33.188-55.313h11.062c6.11 0 11.063 5.012 11.063 11.032v77.468zm33.187-88.5L57.555 110.72l-.008-38.11-16.363 19.524a8.383 8.383 0 01-2.09 3.246l-1.953 1.887c-3.305 3.191-8.586 3.09-11.696-.133l-23.16-23.98c-3.152-3.266-3.027-8.508.277-11.696l1.954-1.887c3.304-3.191 8.586-3.09 11.695.133l14.387 14.899 13.668-16.286A8.156 8.156 0 0149.3 55.5l-.043-.094zm11.063-33.187V33.28s-1.739 16.594-22.125 16.594c-20.387 0-22.125-16.594-22.125-16.594H46.492L57.625 22.22zm0-22.125v11.062H57.69L46.492.094zm0 0" fill-rule="evenodd"/></svg>