<svg xmlns="http://www.w3.org/2000/svg" width="192" height="180" viewBox="0 0 144 135"><path d="M20.559 107.547l46.34 3.574c12.261 4.672 24.769 11.484 46.343 10.399-9.777 6.144-16.922 8.046-22.89 9.378-24.372-2.085-23.184-15.55-60.875-13.113-6.391-7.097-7.606-8.09-8.918-10.238zM88.336 0v8.82h17.637v8.82h8.82v27.731c4.883 1.41 7.926 2.883 8.809 5.98-1.102 7.06-8.524 16.797-8.809 17.169v28.59c8.758-.297 17.781-2.102 27.172-6.278-6.098 9.57-3.524 6.695-10.45 16.461-65.238 10.734-72.925-27.09-118.296-8.352-4.574-8.441-2.746-4.789-6.254-11.007 9.633-4.614 19.066-6.012 28.453-5.614V68.45c-.707-.93-7.691-10.27-8.758-17.106.88-3.086 3.902-4.563 8.758-5.969V17.641h8.82V8.82h17.637V0zm8.82 17.64H53.06v8.817h-8.82v16.617l30.917-12.18C87.492 37.814 97.95 40.97 105.973 43.07V26.457h-8.817zm0 0" fill-rule="evenodd"/></svg>