<svg xmlns="http://www.w3.org/2000/svg" width="192" height="162" viewBox="0 0 144 121.5"><path d="M71.563 54.98c12.359 0 13.617 13.801 27.695 19.086 14.078 5.282 19.765 12.305 19.765 20.125 0 14.813-13.168 22.614-26.476 24.594-13.309 1.977-16.274 4.45-36.309 1.3-20.035-3.151-34.375-9.733-34.375-25.894 0-10.054 6.89-12.824 21.051-21.28 14.16-8.458 16.29-17.93 28.648-17.93zM22.71 32.332c5.602 2.922 9.824 11.797 10.992 15.758 1.172 3.965 1.457 11.289-3.726 17.258-5.95.988-12.211-.465-16.57-3.551A25.673 25.673 0 013.62 48c-1.738-5.996 2.797-10.734 6.824-13.25 4.024-2.516 8.098-4.59 12.266-2.418zm109.457 1.04c4.11 2.37 7.855 4.995 7.894 9.69.051 6.32-5.804 14.215-8.753 17.106-2.95 2.895-9.286 6.586-16.989 4.812-3.668-4.789-5.324-11-4.644-16.296a25.678 25.678 0 017.59-15.118c4.476-4.351 10.789-2.57 14.902-.195zm-35.98-31.93c4.644.988 9.015 2.324 10.503 6.78 2 5.993-1.129 15.31-3.039 18.973-1.91 3.664-6.793 9.133-14.668 9.825-4.968-3.422-8.464-8.817-9.453-14.067a25.657 25.657 0 012.547-16.719c2.91-5.523 9.465-5.78 14.11-4.793zm-37.63 1.73c4.348 4.586 5.45 14.351 5.266 18.48-.183 4.13-2.3 11.149-9.144 15.106-5.946-1.004-11.395-4.418-14.512-8.754a25.69 25.69 0 01-4.758-16.23c.305-6.235 6.137-9.239 10.762-10.31C50.8.399 55.328-.237 58.559 3.173zm0 0" fill-rule="evenodd"/></svg>