<svg xmlns="http://www.w3.org/2000/svg" width="192" height="162" viewBox="0 0 144 121.5"><path d="M37.922 41.434v.03c42.816 10.442 63.992 60.747 102.375 27.653v33.094c-13.492 19.957-102.375 16.11-102.375 16.11V98.155l-25.602-6.59 3.328 24.258-15.445-12.75v-49.25c10.281-18.808 37.719-12.39 37.719-12.39zm45.308 13.77l55.004 9.636c-4.382 4.652-10.613 6.754-15.89 6.754-16.094 0-26.668-6.82-39.114-16.39zm6.813-16.458l53.707 9.379.047 1.633c0 2.535-.332 4.828-.93 6.89l-61.36-9.972c2.981-2.785 5.747-5.48 8.536-7.93zm26.75-11.082c13.762 0 21.941 4.023 25.266 12.09l-43.13-7.535c4.942-2.813 10.575-4.555 17.864-4.555zM21.758 10.043l26.941 4.867v21.555l-26.941-4.871zM116.05 0l26.941 5.027v20.114l-26.941-5.153zm0 0" fill-rule="evenodd"/></svg>