<?xml version="1.0" encoding="UTF-8" standalone="no"?>
<!DOCTYPE svg PUBLIC "-//W3C//DTD SVG 1.1//EN" "http://www.w3.org/Graphics/SVG/1.1/DTD/svg11.dtd">
<svg width="100%" height="100%" viewBox="0 0 600 600" version="1.1" xmlns="http://www.w3.org/2000/svg" xmlns:xlink="http://www.w3.org/1999/xlink" xml:space="preserve" xmlns:serif="http://www.serif.com/" style="fill-rule:evenodd;clip-rule:evenodd;stroke-linejoin:round;stroke-miterlimit:2;">
    <rect x="0" y="0" width="600" height="600" style="fill:rgb(205,79,57);"/>
    <g id="Logo_final" transform="matrix(0.588235,0,0,0.588235,123.529,162.062)">
        <g transform="matrix(0.375019,0,0,0.323697,70.2922,36.6241)">
            <path d="M494.516,417.517L465.868,390.524L478.619,390.524C479.245,390.524 479.82,390.766 480.275,391.17C480.314,391.206 480.353,391.243 480.391,391.28L495.428,405.448L510.413,391.328C510.483,391.259 510.554,391.191 510.627,391.126C511.074,390.748 511.63,390.524 512.232,390.524L524.988,390.524L496.34,417.517C496.303,417.553 496.266,417.589 496.227,417.623C496.005,417.81 495.728,417.922 495.428,417.922C495.128,417.922 494.851,417.81 494.628,417.623C494.59,417.589 494.552,417.553 494.516,417.517Z" style="fill:white;"/>
        </g>
        <g transform="matrix(0.245201,0,0,0.233679,142.843,58.7187)">
            <path d="M512.864,390.524L524.988,390.524L496.915,416.975C496.848,417.043 496.778,417.108 496.707,417.171C496.357,417.458 495.912,417.629 495.428,417.629C494.944,417.629 494.499,417.458 494.149,417.171C494.077,417.108 494.008,417.043 493.94,416.975L465.868,390.524L477.994,390.524C479.007,390.524 479.935,390.9 480.649,391.523C480.727,391.594 480.804,391.666 480.88,391.74L495.428,405.448L510.012,391.706C510.065,391.655 510.119,391.604 510.173,391.555C510.891,390.913 511.833,390.524 512.864,390.524Z" style="fill:white;"/>
        </g>
        <path d="M242.983,260.397C246.277,262.874 249.737,265.142 253.343,267.181C243.867,269.688 162.261,293.069 253.058,332.45C305.452,355.176 261.249,372.057 207.124,383.188C196.114,366.441 185.474,348.172 175.553,328.702C160.488,299.135 148.639,269.854 140.198,242.51C137.4,233.447 134.977,224.597 132.936,216.02C131.008,205.781 130,195.22 130,184.424C130,151.234 139.532,120.252 156.006,94.07C186.102,46.238 239.365,14.424 300,14.424C360.653,14.424 413.929,46.257 444.02,94.112C460.478,120.285 470,151.252 470,184.424C470,194.137 469.184,203.661 467.616,212.931C465.235,223.324 462.284,234.135 458.776,245.254C450.397,271.809 438.839,300.122 424.277,328.702C407.68,361.276 389.069,390.49 370.078,414.835C349.908,440.691 329.311,461.055 310.243,474.12C276.906,428.467 311.428,403.419 366.079,380.363C436.148,350.802 313.336,310.231 286.674,300C260.013,289.769 287.722,278.637 287.722,278.637C291.742,279.156 295.84,279.424 300,279.424C325.497,279.424 348.661,269.358 365.732,252.987L308.767,179.901C308.4,179.473 307.856,179.202 307.249,179.202C306.595,179.202 306.013,179.517 305.648,180.003L305.643,180.003L242.983,260.397ZM372.519,245.767C386.541,229.211 395,207.798 395,184.424C395,131.993 352.432,89.424 300,89.424C247.568,89.424 205,131.993 205,184.424C205,197.404 207.609,209.779 212.33,221.053L238.965,186.879C239.004,186.829 239.043,186.779 239.082,186.729C239.724,185.95 240.697,185.453 241.785,185.453C242.83,185.453 243.769,185.912 244.41,186.639L266.233,214.638L304.243,165.871C304.976,165.039 306.05,164.513 307.245,164.513C308.44,164.513 309.514,165.039 310.247,165.871L372.519,245.767ZM216.146,229.085C221.165,238.48 227.716,246.935 235.465,254.115L261.195,221.102L243.3,198.143C242.933,197.717 242.39,197.448 241.785,197.448C241.153,197.448 240.59,197.741 240.223,198.199L240.219,198.199L216.146,229.085Z" style="fill:white;"/>
        <g transform="matrix(0.794569,0,0,0.909447,-56.78,51.0301)">
            <ellipse cx="504.9" cy="101.537" rx="17.62" ry="15.394" style="fill:white;"/>
        </g>
    </g>
</svg>
