<svg xmlns="http://www.w3.org/2000/svg" width="192" height="177" viewBox="0 0 144 132.75"><path d="M105.348 63.05c.675 1.669.582 3.766.57 5.65-.016 3.542.137 6.984 0 10.527-.137 3.523.066 7.191 1.117 10.632.73 2.399 2.227 3.649 4.887 4.27.957.226 2.055.07 3.039 0 5.61-.399 7.691-.59 10.879-3.234 1.246-1.036 2.5-3.317 3.344-4.793 4.093-7.188 4.847-14.75 2.77-22.567-1.017-3.816-3.142-7.105-6.114-9.933-2.711-2.579-6.024-4.004-9.942-3.735-6.203.43-10.77 3.586-14.742 7.762 2.598 1.098 3.293 3.195 4.192 5.422zM44.414 29.099c7.918 1.363 14.621 5.324 18.82 11.414 2.489 3.601 3.426 7.531 3.477 11.64.043 3.551-.5 7.043-1.57 10.477-.164.52-.07.855.425 1.18.723.472 1.422.972 2.125 1.457 1.664-1.254 3.27-2.485 4.903-3.696 6.031-4.46 12.937-6.898 21.168-6.273.265.02.535.004.86.004.933-3.067 1.097-6.387 3.003-9.11 3.605-5.144 9.93-10.011 17.273-10.726 9.309-.903 19.38 3.976 24.637 11.941 2.707 4.098 3.746 8.508 4.067 13.102.386 5.55.425 11.183 0 16.726-.38 4.954-1.344 9.746-3.098 14.524-2.793 7.601-8.23 12.742-17.149 15.351-3.789 1.11-8.257 2.454-12.257 1.938-5.235-.672-10.145-3.363-12.856-7.04-1.422-1.925-1.765-4.265-2.09-6.487-.87-5.997-.297-12.118-.484-17.872-.027-.902-.238-2.226-.387-3.105-.66-3.918-2.945-4.434-7.972-3.352-1.446.309-3.012.434-4.317 1.036-2.273 1.046-3.57 1.222-5.703 2.316 1.98 2.414 3.031 4.621 4.781 6.96 3.227 4.325 5.48 8.985 6.528 14.017 1.074 5.171.675 10.277-1.29 15.265-1.738 4.403-5.445 7.52-10.019 9.98-6.805 3.665-14.316 5.122-22.379 4.72-9.8-.485-18.113-3.84-25.441-9.094-4.012-2.875-7.899-5.848-11.223-9.282-2.91-3-5.453-6.195-7.57-9.636-4.754-7.715-7.281-15.996-9.207-24.438-.45-1.984-.856-3.976-1.332-5.957-.14-.594.05-.805.758-.906 1.523-.219 5.19-1.234 6.69-1.531.72-.141.923.062 1.095.625 1.172 3.859 1.605 8.168 3.023 11.968 2.766 7.407 6.152 13.97 11.766 20.239 5.285 5.906 10.914 10.672 19.316 13.312 4.95 1.555 9.684 1.164 14.762.453 6.84-.96 11.394-6.207 12.734-7.86 1.344-1.655 3.793-11.003 1.719-17.089-1.992-5.84-5.418-9.91-10.734-14.062-7.364 6.894-12.711 9.125-17.68 10.535-2.555-4.442-5.578-11.223-8.145-15.684 1.844-.48 5.188-1.262 6.903-1.812 4.992-1.606 9.074-2.84 12.566-6.293 2.27-2.243 3.203-4.602 3.621-7.567.758-5.379-2.047-8.222-8.48-9.105-4.504-.621-7.82-.016-12.153 1.023-4.246 1.02-7.62 1.973-11.277 4.082-.16.09-1 1.07-1.445 1.254-2.211-4.648-5.145-10.805-7.328-15.398 2.101-1.274 4.168-2.586 6.422-3.067 6.57-1.398 13.464-2.25 20.144-1.097zM95.59 13.215c4.262 3.652 8.43 7.223 12.75 10.922-1.258 1.226-2.438 2.52-3.778 3.672-11.43 9.832-29.156 11.273-42.644 3.511-6.191-3.562-11.012-8.172-14.688-13.668-.296-.445-.285-.699.22-1.007 1.437-.864 2.866-1.735 4.245-2.66.547-.368.844-.258 1.313.074 2.25 1.593 4.433 3.27 6.824 4.695 3.879 2.312 8.172 3.91 12.91 4.508 4.371.55 8.45-.29 12.309-2.008 3.87-1.723 6.933-4.227 9.633-7.086.234-.25.472-.5.906-.953zM74.8 0L88.06 10.77l-11.817 9.695c-4.722-3.637-9.234-7.11-13.594-10.469C66.75 6.621 70.738 3.34 74.801 0zm0 0" fill-rule="evenodd"/></svg>