<svg xmlns="http://www.w3.org/2000/svg" width="157" height="192" viewBox="0 0 117.75 144"><path d="M63.914.043c.813 4.8 4.816 8.324 13.547 19.129 13.781 10.23 20.191 22.402 20.191 30.375 0 18.879-19.234 30.246-32.832 45.777 0 1.528.094 1.36.094 2.73 53.332-24.745 39.527-54.867 32.867-71.429 47.59 24.637-4.449 83.484-7.32 87.71l-.066.106-.985-1.43c-3.082-4.41-5.914-7.452-6.84-8.413l-.316-.325s-8.777.125-11.602.125c9.618 23.457 45.676 28.375 45.676 28.375v10.375H58.875v.082H2.985v-10.457s34.495-4.84 44.113-28.296c-2.825 0-11.602-.122-11.602-.122l-.316.325c-.926.957-3.758 4-6.84 8.41l-.996 1.43-.055-.102c-2.871-4.23-54.91-63.078-7.32-87.711-6.66 16.559-20.465 46.68 32.867 71.426 0-1.371.094-1.203.094-2.73-13.598-15.532-32.832-26.9-32.832-45.778 0-7.969 6.41-20.145 20.191-30.375C49.02 8.445 53.023 4.922 53.836.121h5.027l.012-.078zM44.04 27.938c-10.664 5.5-12.133 18.015-12.133 22.808.621 20.195 13.395 21.586 13.395 21.586l4.71-6.84s.005-1.75.009-4.07l.003-15.129-.011-4.594c0-3.101-1.621-6.582-5.973-13.761zm29.648 0c-4.347 7.18-5.972 10.66-5.972 13.761 0 3.102-.016 6.133-.016 9.047l.004 6.14c.008 4.126.012 8.606.012 8.606l4.715 6.84s12.773-1.39 13.394-21.586c0-4.793-1.469-17.309-12.136-22.809zm0 0" fill-rule="evenodd"/></svg>