<svg xmlns="http://www.w3.org/2000/svg" width="192" height="162" viewBox="0 0 144 121.5"><path d="M58.488 0c9.145 0 17.657 2.066 25.172 5.758a42.05 42.05 0 00-4.46-.235c-22.876 0-41.505 21.188-41.505 44.063 0 22.875 18.63 40.305 41.504 40.305 15.559 0 29.11-9.282 36.192-22.414-3.688 28.632-26.875 49.175-56.903 49.175C25.7 116.652.203 92.156.203 59.372.203 26.581 25.7 0 58.488 0zm48.84.93l8.809 17.25 19.004.668-15.934 13.03 8.664 23.349-19.66-10.442L87.02 55.227l8.918-20.586L78.07 18.18H100zm0 0" fill-rule="evenodd"/></svg>