<svg xmlns="http://www.w3.org/2000/svg" width="176" height="192" viewBox="0 0 132 144"><path d="M65.965 0l23.039 37.598 42.996.004-21.73 34.652 21.28 34.707-43.05-.004L66 142.836l-22.5-35.879-43.125.004 21.32-34.781L0 37.602l42.898-.004zm9.566 106.96H56.395l9.57 14.353zm-46.64-23.917l-7.172 11.96h14.347zm74.144 0l-7.176 11.96h14.352zm-21.527-33.48H49.223L34.87 72.28l14.352 22.723h33.48L97.055 72.28zm-45.442 0H21.72L28.89 61.52zm74.145 0H95.859l7.176 11.957zM65.965 24.448l-8.371 13.153h16.738zm0 0" fill-rule="evenodd"/></svg>